<svg width="444" height="500" viewBox="0 0 444 500" fill="none" xmlns="http://www.w3.org/2000/svg">
<path d="M443.33 239.397L443.31 248.377L353.49 300.567L353.52 291.587L443.33 239.397Z" fill="#D3D3DD"/>
<path d="M353.52 291.587L353.49 300.567L263.09 248.377L263.12 239.397L353.52 291.587Z" fill="#E0DEE9"/>
<path d="M443.33 239.397L353.52 291.587L263.12 239.397L352.93 187.197L443.33 239.397Z" fill="#EAEAF4"/>
<path d="M429.32 103.277L428.94 238.007L353.35 281.937L353.73 147.207L429.32 103.277Z" fill="#D3D3DD"/>
<path d="M353.73 147.207L353.35 281.937L277.26 238.007L277.64 103.277L353.73 147.207Z" fill="#E0DEE9"/>
<path d="M429.32 103.277L353.73 147.207L277.64 103.277L353.24 59.3574L429.32 103.277Z" fill="#EAEAF4"/>
<path d="M297.25 162.187L297.22 176.157L285.07 169.147L285.11 155.177L297.25 162.187Z" fill="black"/>
<path d="M297.31 142.767L297.27 156.727L285.12 149.707L285.16 135.747L297.31 142.767Z" fill="black"/>
<path d="M297.37 123.327L297.32 137.297L285.18 130.287L285.21 116.317L297.37 123.327Z" fill="black"/>
<path d="M346.35 209.997L346.31 223.967L302.71 198.797L302.75 184.827L346.35 209.997Z" fill="black"/>
<path d="M346.4 190.567L346.37 204.537L302.77 179.367L302.81 165.397L346.4 190.567Z" fill="black"/>
<path d="M346.46 171.137L346.42 185.097L302.82 159.927L302.87 145.967L346.46 171.137Z" fill="black"/>
<path d="M346.51 151.707L346.48 165.677L302.88 140.507L302.92 126.537L346.51 151.707Z" fill="black"/>
<path d="M297.14 201.047L297.11 215.017L284.96 208.007L285 194.037L297.14 201.047Z" fill="black"/>
<path d="M297.2 181.627L297.16 195.597L285.01 188.577L285.05 174.607L297.2 181.627Z" fill="black"/>
<path d="M346.29 229.427L346.25 243.397L302.66 218.227L302.7 204.257L346.29 229.427Z" fill="black"/>
<path d="M372.92 164.277L372.96 178.247L360.8 185.267L360.76 171.297L372.92 164.277Z" fill="black"/>
<path d="M372.86 144.837L372.9 158.807L360.75 165.827L360.71 151.857L372.86 144.837Z" fill="black"/>
<path d="M422.23 194.197L422.27 208.157L378.67 233.327L378.63 219.367L422.23 194.197Z" fill="black"/>
<path d="M422.17 174.767L422.21 188.737L378.62 213.897L378.58 199.937L422.17 174.767Z" fill="black"/>
<path d="M422.12 155.337L422.16 169.297L378.56 194.467L378.52 180.507L422.12 155.337Z" fill="black"/>
<path d="M422.06 135.897L422.1 149.867L378.51 175.037L378.47 161.067L422.06 135.897Z" fill="black"/>
<path d="M422.01 116.467L422.05 130.437L378.45 155.607L378.41 141.637L422.01 116.467Z" fill="black"/>
<path d="M373.08 222.567L373.13 236.527L360.97 243.547L360.93 229.587L373.08 222.567Z" fill="black"/>
<path d="M373.03 203.137L373.07 217.107L360.91 224.127L360.88 210.157L373.03 203.137Z" fill="black"/>
<path d="M372.98 183.707L373.01 197.667L360.86 204.687L360.82 190.727L372.98 183.707Z" fill="black"/>
<path d="M428.97 227.137L428.94 238.007L353.35 281.937L353.31 270.817L428.97 227.137Z" fill="#7D2BE6"/>
<path d="M353.38 270.817L353.35 281.937L277.26 238.007L277.29 226.887L353.38 270.817Z" fill="#7D2BE6"/>
<path d="M352.88 105.067H353.74L358.06 107.567C354.969 108.502 351.671 108.502 348.58 107.567L352.88 105.067Z" fill="black"/>
<path d="M334.09 89.2275C345.09 83.8975 361.27 83.8975 372.35 89.2275L368.45 91.4975C359.54 87.3975 346.87 87.3975 338.02 91.4975L334.09 89.2275Z" fill="black"/>
<path d="M340.78 93.0875C348.772 89.8374 357.718 89.8374 365.71 93.0875L361.78 95.3675C356.28 93.3279 350.23 93.3279 344.73 95.3675L340.78 93.0875Z" fill="black"/>
<path d="M348.52 97.5575C351.617 96.6172 354.923 96.6172 358.02 97.5575L353.72 100.057C353.427 100.037 353.133 100.037 352.84 100.057L348.52 97.5575Z" fill="black"/>
<path d="M357.67 102.807C357.69 102.641 357.69 102.473 357.67 102.307L361.97 99.8174C362.352 100.165 362.658 100.589 362.867 101.062C363.076 101.534 363.184 102.046 363.184 102.562C363.184 103.079 363.076 103.59 362.867 104.063C362.658 104.536 362.352 104.96 361.97 105.307L357.67 102.807Z" fill="black"/>
<path d="M365.74 107.497C369.24 104.497 369.23 100.587 365.69 97.6274L369.67 95.3374C375.3 99.5874 375.33 105.537 369.75 109.787L365.74 107.497Z" fill="black"/>
<path d="M340.85 97.6274C337.34 100.627 337.37 104.537 340.91 107.497L336.98 109.787C331.35 105.537 331.31 99.5874 336.89 95.3374L340.85 97.6274Z" fill="black"/>
<path d="M372.46 111.377C379.46 106.237 379.46 98.8873 372.36 93.7473L376.26 91.4773C385.48 97.8773 385.54 107.237 376.38 113.637L372.46 111.377Z" fill="black"/>
<path d="M338.14 113.637C347.04 117.727 359.73 117.727 368.58 113.637L372.5 115.897C361.5 121.227 345.32 121.227 334.25 115.897L338.14 113.637Z" fill="black"/>
<path d="M334.14 93.7473C327.09 98.8873 327.14 106.227 334.24 111.377L330.34 113.637C321.1 107.237 321.06 97.8773 330.21 91.4873L334.14 93.7473Z" fill="black"/>
<path d="M344.82 109.757C350.305 111.787 356.335 111.787 361.82 109.757L365.82 112.037C357.824 115.287 348.876 115.287 340.88 112.037L344.82 109.757Z" fill="black"/>
<path d="M348.96 102.307C348.935 102.476 348.935 102.648 348.96 102.817L344.67 105.307C344.285 104.961 343.977 104.538 343.766 104.065C343.555 103.592 343.446 103.08 343.446 102.562C343.446 102.045 343.555 101.533 343.766 101.06C343.977 100.587 344.285 100.163 344.67 99.8174L348.96 102.307Z" fill="black"/>
<path d="M311.59 315.677L311.56 324.657L221.75 376.857L221.77 367.877L311.59 315.677Z" fill="#D3D3DD"/>
<path d="M221.77 367.877L221.75 376.857L131.35 324.667L131.37 315.677L221.77 367.877Z" fill="#E0DEE9"/>
<path d="M311.59 315.677L221.77 367.877L131.37 315.677L221.19 263.487L311.59 315.677Z" fill="#EAEAF4"/>
<path d="M297.58 179.567L297.19 314.297L221.6 358.217L221.99 223.497L297.58 179.567Z" fill="#D3D3DD"/>
<path d="M221.99 223.497L221.6 358.217L145.52 314.287L145.9 179.567L221.99 223.497Z" fill="#E0DEE9"/>
<path d="M297.58 179.567L221.99 223.497L145.9 179.567L221.49 135.637L297.58 179.567Z" fill="#EAEAF4"/>
<path d="M165.51 238.477L165.47 252.447L153.32 245.427L153.36 231.457L165.51 238.477Z" fill="black"/>
<path d="M165.57 219.047L165.53 233.007L153.38 225.997L153.42 212.037L165.57 219.047Z" fill="black"/>
<path d="M165.62 199.617L165.58 213.587L153.43 206.567L153.47 192.597L165.62 199.617Z" fill="black"/>
<path d="M214.6 286.287L214.56 300.257L170.97 275.087L171.01 261.117L214.6 286.287Z" fill="black"/>
<path d="M214.66 266.857L214.62 280.827L171.03 255.647L171.06 241.688L214.66 266.857Z" fill="black"/>
<path d="M214.72 247.427L214.68 261.387L171.08 236.217L171.12 222.257L214.72 247.427Z" fill="black"/>
<path d="M214.77 227.987L214.73 241.957L171.14 216.787L171.18 202.827L214.77 227.987Z" fill="black"/>
<path d="M165.4 277.337L165.36 291.307L153.21 284.287L153.25 270.327L165.4 277.337Z" fill="black"/>
<path d="M165.46 257.907L165.42 271.877L153.27 264.867L153.31 250.897L165.46 257.907Z" fill="black"/>
<path d="M214.55 305.717L214.51 319.687L170.92 294.517L170.96 280.547L214.55 305.717Z" fill="black"/>
<path d="M241.18 240.557L241.22 254.527L229.06 261.547L229.02 247.577L241.18 240.557Z" fill="black"/>
<path d="M241.12 221.127L241.16 235.097L229 242.117L228.96 228.147L241.12 221.127Z" fill="black"/>
<path d="M290.48 270.487L290.52 284.447L246.93 309.617L246.89 295.657L290.48 270.487Z" fill="black"/>
<path d="M290.43 251.047L290.47 265.017L246.87 290.187L246.83 276.217L290.43 251.047Z" fill="black"/>
<path d="M290.37 231.627L290.41 245.587L246.82 270.757L246.78 256.787L290.37 231.627Z" fill="black"/>
<path d="M290.32 212.188L290.36 226.158L246.76 251.327L246.72 237.357L290.32 212.188Z" fill="black"/>
<path d="M290.26 192.757L290.3 206.727L246.71 231.887L246.67 217.917L290.26 192.757Z" fill="black"/>
<path d="M241.34 298.857L241.38 312.817L229.22 319.837L229.19 305.877L241.34 298.857Z" fill="black"/>
<path d="M241.29 279.417L241.32 293.387L229.17 300.407L229.13 286.437L241.29 279.417Z" fill="black"/>
<path d="M241.23 259.997L241.27 273.957L229.12 280.977L229.07 267.017L241.23 259.997Z" fill="black"/>
<path d="M297.23 303.427L297.2 314.287L221.61 358.217L221.58 347.097L297.23 303.427Z" fill="#7D2BE6"/>
<path d="M221.64 347.097L221.61 358.217L145.52 314.287L145.55 303.167L221.64 347.097Z" fill="#7D2BE6"/>
<path d="M221.14 181.347C221.423 181.368 221.707 181.368 221.99 181.347L226.32 183.847C223.23 184.787 219.93 184.787 216.84 183.847L221.14 181.347Z" fill="black"/>
<path d="M202.35 165.517C213.35 160.187 229.52 160.187 240.61 165.517L236.71 167.777C227.8 163.677 215.12 163.677 206.27 167.777L202.35 165.517Z" fill="black"/>
<path d="M209.03 169.367C217.028 166.127 225.972 166.127 233.97 169.367L230.04 171.657C224.536 169.617 218.484 169.617 212.98 171.657L209.03 169.367Z" fill="black"/>
<path d="M216.78 173.887C219.874 172.947 223.177 172.947 226.27 173.887L221.98 176.377H221.1L216.78 173.887Z" fill="black"/>
<path d="M225.88 179.097C225.9 178.931 225.9 178.763 225.88 178.597L230.18 176.097C230.561 176.446 230.865 176.87 231.074 177.343C231.282 177.815 231.389 178.326 231.389 178.842C231.389 179.359 231.282 179.87 231.074 180.342C230.865 180.815 230.561 181.239 230.18 181.587L225.88 179.097Z" fill="black"/>
<path d="M234 183.787C237.5 180.787 237.48 176.867 233.95 173.907L237.87 171.627C243.5 175.867 243.54 181.827 237.96 186.067L234 183.787Z" fill="black"/>
<path d="M209.1 173.887C205.6 176.887 205.63 180.807 209.16 183.767L205.23 186.047C199.6 181.807 199.57 175.847 205.15 171.607L209.1 173.887Z" fill="black"/>
<path d="M240.67 187.657C247.67 182.527 247.67 175.177 240.57 170.037L244.47 167.767C253.7 174.167 253.76 183.527 244.59 189.927L240.67 187.657Z" fill="black"/>
<path d="M206.4 189.887C215.29 193.977 227.98 193.977 236.83 189.887L240.75 192.147C229.75 197.477 213.58 197.477 202.5 192.147L206.4 189.887Z" fill="black"/>
<path d="M202.39 170.037C195.39 175.167 195.39 182.517 202.49 187.657L198.6 189.887C189.36 183.487 189.31 174.127 198.47 167.727L202.39 170.037Z" fill="black"/>
<path d="M213.07 186.037C218.555 188.067 224.585 188.067 230.07 186.037L234.07 188.327C226.078 191.577 217.132 191.577 209.14 188.327L213.07 186.037Z" fill="black"/>
<path d="M217.22 178.597C217.19 178.763 217.19 178.932 217.22 179.097L212.92 181.597C212.536 181.25 212.229 180.825 212.019 180.352C211.809 179.878 211.7 179.366 211.7 178.847C211.7 178.329 211.809 177.817 212.019 177.343C212.229 176.87 212.536 176.445 212.92 176.097L217.22 178.597Z" fill="black"/>
<g opacity="0.4">
<g opacity="0.4">
<path opacity="0.4" d="M383.15 458.197C385.01 453.197 378.48 446.127 368.56 442.447C358.64 438.767 349.09 439.887 347.23 444.887C345.37 449.887 351.9 456.957 361.82 460.647C371.74 464.337 381.28 463.237 383.15 458.217" fill="#D6D8E5"/>
</g>
</g>
<g opacity="0.4">
<g opacity="0.4">
<path opacity="0.4" d="M245.85 375.247C248.33 380.637 258.96 381.047 269.61 376.167C280.26 371.287 286.88 362.957 284.41 357.567C281.94 352.177 271.31 351.767 260.66 356.647C250.01 361.527 243.38 369.857 245.85 375.247Z" fill="#D6D8E5"/>
</g>
</g>
<path d="M364.84 328.747C365.75 327.277 372.71 326.317 375 332.217C375.87 334.457 375.74 340.217 376.47 343.767C377.2 347.317 378.9 349.397 379.52 352.317C380.14 355.237 379.13 360.117 372.11 360.977C365.09 361.837 359.68 359.377 358.02 357.137C356.36 354.897 356.32 350.137 358.02 347.577C359.72 345.017 361.02 342.947 361.02 339.577L364.84 328.747Z" fill="#3A2C6D"/>
<path d="M369.44 327.727C369.44 327.727 364.19 326.217 361.01 329.047C359.963 330.015 359.201 331.25 358.806 332.62C358.411 333.99 358.399 335.441 358.77 336.817C359.2 338.477 360.04 340.737 361.36 340.817C362.68 340.897 369.44 327.687 369.44 327.687" fill="#3A2C6D"/>
<path d="M371.44 342.027C371.44 342.027 371.1 347.877 371.2 348.307C371.3 348.737 373.5 349.147 374.11 349.657C374.72 350.167 370.93 356.097 369 356.977C367.07 357.857 361.11 355.607 360.69 352.637C360.31 349.907 362.4 347.777 363.21 347.037C363.756 347 364.304 347 364.85 347.037L365.03 344.207C367.64 343.367 371.44 342.067 371.44 342.067" fill="#FFCEA9"/>
<path d="M357.31 353.067C357.31 352.907 356.43 353.377 356.41 353.387C356.39 353.397 356 368.387 355.26 369.747C353.39 372.927 348.43 378.317 348.31 378.917C347.95 380.737 349 379.107 350.7 378.917C351.7 378.797 357.29 373.097 358.56 371.797L358.64 371.847C358.64 371.797 358.64 371.747 358.64 371.697L358.81 371.527C358.84 371.125 358.84 370.72 358.81 370.317C361.14 354.047 358.26 352.957 357.25 353.077" fill="#FFCEA9"/>
<path d="M372.24 348.887C373.88 349.147 375.76 350.017 376.02 350.887C376.696 354.128 376.535 357.487 375.55 360.647C374.13 364.407 373.17 366.797 372.35 368.417C372.35 368.417 365.25 371.417 359.52 367.917C359.52 367.917 359.13 363.917 359.1 361.727C353.81 357.117 358.33 351.427 362.81 347.007C363.349 346.962 363.891 346.962 364.43 347.007C364.43 347.007 360.43 351.727 363.21 354.417C369.16 352.617 370.34 349.947 372.21 348.877" fill="#F4F4F4"/>
<path d="M360.52 334.787C361.11 331.037 363.83 328.197 367.7 328.427C369.256 328.514 370.745 329.088 371.958 330.067C373.171 331.045 374.045 332.38 374.458 333.883C374.872 335.386 374.803 336.98 374.261 338.441C373.719 339.903 372.733 341.157 371.44 342.027C371.307 342.596 371.106 343.147 370.84 343.667C369.47 345.267 365.84 346.277 364.63 346.297C363.63 346.297 362.69 345.297 361.72 343.727C359.72 340.367 360.2 336.637 360.52 334.787Z" fill="#FFCEA9"/>
<path d="M368.9 328.487C371.61 329.027 373.85 329.787 374.58 332.487C375.09 334.317 375.75 337.827 375.12 339.297L374.73 340.367L371.44 342.057C371.44 342.057 369.91 340.777 370.38 337.057C370.368 336.55 370.208 336.056 369.92 335.637C369.715 335.285 369.563 334.904 369.47 334.507C369.08 333.494 368.318 332.668 367.34 332.197C364.89 330.827 361.34 332.017 360.8 332.507C361.485 331.012 362.664 329.797 364.14 329.069C365.615 328.34 367.296 328.142 368.9 328.507" fill="#3A2C6D"/>
<path d="M373.84 447.237C372.47 448.357 370.33 447.587 370.22 447.687C368.625 449.061 366.956 450.346 365.22 451.537C364.36 452.207 363.03 453.107 363.27 454.407C363.7 456.717 367.41 456.007 368.81 455.297C370.21 454.587 371.35 453.417 372.67 452.597C373.62 452.007 374.55 451.707 374.67 450.507C374.76 449.787 374.09 447.217 373.85 447.237" fill="#38226D"/>
<path d="M374.67 450.027C374.48 451.177 373.57 451.487 372.67 452.027C371.32 452.867 370.14 454.027 368.74 454.777C367.34 455.527 364.23 456.087 363.32 454.427C363.81 456.667 367.45 455.957 368.84 455.257C370.23 454.557 371.38 453.377 372.7 452.557C373.65 451.967 374.58 451.667 374.7 450.467C374.719 450.308 374.719 450.147 374.7 449.987" fill="#7D2BE6"/>
<path d="M364.2 445.317C362.94 446.317 361.04 445.767 360.94 445.857C359.472 447.111 357.937 448.283 356.34 449.367C355.56 449.977 354.34 450.807 354.55 451.997C354.95 454.117 358.35 453.467 359.63 452.817C360.91 452.167 361.96 451.087 363.17 450.337C364.03 449.797 364.88 449.517 365.02 448.427C364.98 447.343 364.7 446.281 364.2 445.317Z" fill="#38226D"/>
<path d="M365 447.987C364.83 448.987 364 449.327 363.14 449.857C361.9 450.617 360.82 451.727 359.54 452.377C358.26 453.027 355.4 453.567 354.54 452.057C354.99 454.057 358.33 453.457 359.6 452.817C360.87 452.177 361.92 451.087 363.14 450.337C364 449.797 364.85 449.517 364.99 448.427C365.003 448.281 365.003 448.134 364.99 447.987" fill="#7D2BE6"/>
<path d="M356.79 381.367C357.39 376.627 359.14 369.747 359.14 369.747C360.791 370.521 362.578 370.963 364.4 371.047C367.068 371.037 369.73 370.779 372.35 370.277C373.206 371.772 374.141 373.221 375.15 374.617C376.52 376.507 379.15 380.617 378.54 387.927C378.12 392.677 375.46 412.827 375.46 412.827C376.493 416.216 377.042 419.735 377.09 423.277C376.84 427.485 376.286 431.67 375.43 435.797L373.84 447.237C373.84 447.237 371.73 448.767 370.22 447.687L370.41 436.497C370.23 433.757 369.96 429.707 369.79 427.127C369.5 422.927 368.79 416.247 368.53 414.587C368.27 412.927 367.78 410.007 367.53 406.737C367.28 403.467 366.04 386.887 366.04 386.887L365.87 389.997C365.87 389.997 365.71 394.997 364.98 401.257C364.25 407.517 363.98 410.257 363.98 410.257C364.664 411.506 365.143 412.857 365.4 414.257C365.53 415.607 367.07 426.257 366.15 431.657L364.26 445.417C363.791 445.74 363.252 445.948 362.687 446.023C362.122 446.097 361.547 446.037 361.01 445.847L359.9 431.977C359.15 426.697 357.58 415.517 357.33 414.057C356.802 411.127 356.487 408.163 356.39 405.187C356.03 399.187 356.16 386.107 356.77 381.367" fill="#FFCEA9"/>
<path d="M372.35 368.427L376.43 376.627C376.43 376.627 382.66 385.747 376.21 409.177L377.42 416.407C377.42 416.407 365.2 424.247 357.03 416.407C357.03 416.407 354.19 394.757 355.7 384.767C356.537 379.012 357.81 373.329 359.51 367.767C359.51 367.767 361.51 369.977 371.81 368.517" fill="#FF7B7B"/>
<path d="M362.81 347.017C362.81 347.017 359.57 346.017 356.12 353.217L357.41 353.987C357.41 353.987 360.8 348.867 362.81 346.987" fill="#EDEDED"/>
<path d="M337.49 385.987L351.44 377.877L361.46 383.657L347.5 391.767L337.49 385.987Z" fill="#F4F4F4"/>
<path d="M349.67 378.467C348.796 378.56 347.951 378.836 347.19 379.277C346.919 379.523 346.624 379.74 346.31 379.927C346.17 379.997 346.04 380.087 345.89 380.147C345.676 380.218 345.486 380.346 345.34 380.517C345.182 380.744 345.095 381.012 345.09 381.287C345.042 381.619 345.042 381.956 345.09 382.287C345.21 382.787 345.73 382.757 346.01 382.407C346.141 382.229 346.221 382.018 346.24 381.797C346.245 381.585 346.301 381.376 346.404 381.19C346.507 381.004 346.653 380.845 346.83 380.727L350.16 378.657C350.117 378.582 350.052 378.522 349.973 378.486C349.894 378.45 349.805 378.44 349.72 378.457" fill="#FFCEA9"/>
<path d="M376.19 353.467C375.73 351.567 374.24 352.177 372.97 351.067C369.97 355.267 371.97 366.627 372.37 367.837L360.98 375.097L360.22 375.577C358.917 376.42 357.485 377.041 355.98 377.417C354.84 377.547 354.25 379.147 353.03 379.297C352.937 379.3 352.848 379.33 352.772 379.384C352.696 379.438 352.638 379.513 352.605 379.599C352.572 379.686 352.565 379.78 352.586 379.871C352.606 379.961 352.653 380.043 352.72 380.107C353.21 380.577 354.51 380.187 355.4 379.107C355.4 379.107 355.4 379.157 355.4 379.187C355.41 379.354 355.463 379.516 355.552 379.657C355.641 379.799 355.764 379.916 355.91 379.997C355.977 380.027 356.048 380.047 356.12 380.057C356.121 380.135 356.142 380.21 356.18 380.277C356.246 380.408 356.342 380.52 356.46 380.605C356.579 380.691 356.716 380.746 356.86 380.767C356.92 380.963 357.047 381.13 357.22 381.24C357.392 381.35 357.598 381.395 357.8 381.367C358.058 381.356 358.302 381.245 358.48 381.057C359.452 380.684 360.31 380.063 360.97 379.257C361.28 378.867 362.37 377.947 362.82 377.537C365.91 376.217 375.18 372.257 375.59 371.687C376.21 370.847 376.86 356.127 376.2 353.417" fill="#FFCEA9"/>
<path d="M377.23 358.577C377.23 358.577 373.58 360.217 370.56 358.687L371 352.987C371 352.987 371 349.917 373.78 349.617C376.56 349.317 377.91 352.817 377.23 358.617" fill="#EDEDED"/>
<path d="M259.02 39.8874L259.31 39.7574C259.69 39.5974 260.07 39.4574 260.45 39.3274H260.52C260.87 39.2074 261.22 39.1074 261.52 39.0074H261.74C262.286 38.8561 262.84 38.7359 263.4 38.6474H263.52C263.95 38.5874 264.38 38.5474 264.8 38.5274H265.05C265.45 38.5274 265.84 38.5274 266.23 38.5274H266.48C266.78 38.5274 267.07 38.5874 267.36 38.6274H267.63C267.97 38.6874 268.31 38.7674 268.63 38.8574H268.75C269.032 38.939 269.309 39.0359 269.58 39.1474L269.85 39.2674L270.58 39.6174L270.83 39.7474L236.06 19.5374L235.95 19.4774L235.81 19.4074L235.08 19.0574L234.94 18.9874L234.82 18.9374C234.54 18.8274 234.26 18.7274 233.98 18.6474H233.88C233.55 18.5574 233.22 18.4774 232.88 18.4174H232.78H232.61C232.32 18.4174 232.03 18.3374 231.73 18.3174H231.56H231.48C231.09 18.3174 230.7 18.3174 230.3 18.3174H230.21H230.05C229.63 18.3174 229.21 18.3774 228.77 18.4374H228.67C228.11 18.5259 227.556 18.6461 227.01 18.7974H226.88H226.79C226.44 18.8974 226.09 18.9974 225.79 19.1174H225.72C225.34 19.2474 224.96 19.3874 224.58 19.5474H224.49L224.29 19.6474C223.94 19.7974 223.58 19.9574 223.22 20.1374C223.1 20.1974 222.97 20.2474 222.85 20.3174C222.4 20.5374 221.95 20.7774 221.5 21.0474L256.33 41.2874C256.78 41.0174 257.23 40.7774 257.68 40.5574L258.05 40.3774C258.41 40.1974 258.76 40.0374 259.12 39.8874" fill="#EAEAF4"/>
<path d="M238.67 32.4075C239.25 32.1475 239.83 31.9075 240.39 31.7075H240.47C240.956 31.5443 241.45 31.4075 241.95 31.2975C242.23 31.2241 242.51 31.1641 242.79 31.1175C243.12 31.0471 243.454 30.9937 243.79 30.9575L244.39 30.8975C244.83 30.8975 245.26 30.8975 245.68 30.8975H245.97C246.467 30.9293 246.961 30.9928 247.45 31.0875L247.81 31.1675C248.182 31.2543 248.549 31.3611 248.91 31.4875L249.25 31.6075C249.703 31.7809 250.142 31.9916 250.56 32.2375L215.83 11.9375L215.72 11.8775C215.396 11.6964 215.062 11.5329 214.72 11.3875L214.52 11.3175L214.18 11.1975L213.66 11.0075L213.07 10.8875L212.71 10.8075H212.52C212.12 10.7366 211.716 10.6865 211.31 10.6575H210.94C210.63 10.6575 210.31 10.6575 209.94 10.6575C209.83 10.6575 209.72 10.6575 209.6 10.6575L209 10.7275C208.82 10.7275 208.64 10.7275 208.45 10.7275L207.95 10.8375C207.67 10.8841 207.39 10.9441 207.11 11.0175L206.67 11.1075C206.33 11.1975 205.98 11.3075 205.67 11.4275H205.59C205.2 11.5675 204.8 11.7175 204.39 11.8875L203.87 12.1175L203.38 12.3475C202.77 12.6275 202.16 12.9375 201.54 13.2975C200.92 13.6575 200.04 14.2175 199.3 14.7475L234.13 34.9875C234.86 34.4675 235.61 33.9875 236.37 33.5375C237.13 33.0875 237.6 32.8675 238.21 32.5875L238.7 32.3675" fill="#EAEAF4"/>
<path d="M205.77 22.5374L206.3 22.3074C206.82 22.0974 207.3 21.8974 207.85 21.7174L208.14 21.6074C208.75 21.4074 209.35 21.2174 209.95 21.0574C210.29 20.9574 210.64 20.8774 210.95 20.7974L211.46 20.6774C211.95 20.5674 212.46 20.4874 212.91 20.4074H212.99C213.47 20.3374 213.99 20.2874 214.41 20.2374H214.86H215.69C216.34 20.2023 216.991 20.2023 217.64 20.2374H217.98C218.49 20.2374 218.98 20.3374 219.5 20.4174L219.97 20.4974C220.544 20.5947 221.111 20.725 221.67 20.8874H221.74C222.259 21.0403 222.77 21.2206 223.27 21.4274L223.7 21.6074C224.13 21.7974 224.54 21.9974 224.95 22.2174L225.35 22.4274L190.53 2.15737L190.35 2.05737L190.13 1.94737C189.73 1.72737 189.31 1.52737 188.88 1.33737L188.67 1.22737L188.47 1.15737C187.97 0.950561 187.459 0.77031 186.94 0.617373H186.89C186.325 0.447468 185.751 0.31057 185.17 0.207373H184.97H184.7C184.2 0.127373 183.7 0.0673728 183.18 0.0273728C183.097 0.0322675 183.013 0.0322675 182.93 0.0273728H182.85C182.184 -0.00912426 181.516 -0.00912426 180.85 0.0273728H180.67H180.03H179.58C179.12 0.0773728 178.64 0.127373 178.17 0.197373H178.1C177.62 0.267373 177.1 0.357373 176.65 0.467373C176.47 0.467373 176.3 0.547373 176.13 0.587373C175.96 0.627373 175.51 0.727373 175.2 0.817373H175.1C174.5 0.977373 173.9 1.16737 173.29 1.36737L173 1.47737C172.49 1.65737 172 1.85737 171.45 2.06737L171.28 2.12737C171.16 2.12737 171.04 2.24737 170.92 2.28737C170.37 2.52737 169.82 2.77737 169.26 3.04737L168.65 3.34737C167.93 3.70737 167.21 4.08737 166.49 4.50737C165.49 5.07737 164.49 5.69737 163.55 6.34737C163.21 6.57737 162.89 6.83737 162.55 7.07737C161.93 7.51737 161.3 7.95737 160.69 8.42737C160.3 8.72737 159.93 9.05737 159.55 9.42737C159 9.86737 158.45 10.3074 157.91 10.7774C157.37 11.2474 157.13 11.5074 156.73 11.8774C156.33 12.2474 155.73 12.7974 155.22 13.2874L155.15 13.3474C154.403 14.1007 153.663 14.8707 152.93 15.6574L152.33 16.3274C152.05 16.6374 151.77 16.9374 151.49 17.2574C151.21 17.5774 151.13 17.6974 150.95 17.9174C150.43 18.5374 149.95 19.1574 149.41 19.7874C149.21 20.0474 148.99 20.2874 148.78 20.5574C148.57 20.8274 148.49 20.9574 148.34 21.1574C147.96 21.6474 147.6 22.1574 147.23 22.6574C147 22.9774 146.76 23.2774 146.54 23.5974C146.32 23.9174 146.24 24.0574 146.08 24.2774C145.78 24.7174 145.48 25.1674 145.19 25.6174C144.9 26.0674 144.77 26.2174 144.57 26.5274L144.03 27.4174L143.27 28.6574L142.83 29.3874C142.58 29.8074 142.36 30.2274 142.12 30.6474L141.49 31.7874L141.24 32.2374C140.9 32.8774 140.58 33.5274 140.24 34.1774L139.85 34.9574L139.77 35.1174C139.3 36.1174 138.86 37.0574 138.43 38.0374L138.37 38.1874C138.25 38.4574 138.15 38.7374 138.03 39.0174C137.75 39.6974 137.46 40.3674 137.2 41.0174C137.14 41.1574 137.1 41.2874 137.05 41.4274C136.88 41.8674 136.73 42.3174 136.57 42.7574C136.41 43.1974 136.21 43.7574 136.05 44.1974C135.99 44.3974 135.94 44.5874 135.88 44.7774C135.7 45.3274 135.54 45.8774 135.37 46.4274C135.2 46.9774 135.11 47.2374 135 47.6474C134.95 47.8374 134.91 48.0274 134.86 48.2274C134.67 48.9474 134.5 49.6574 134.33 50.3774C134.24 50.7574 134.13 51.1374 134.05 51.5074C133.97 51.8774 133.92 52.1274 133.86 52.4374C133.51 52.6374 133.15 52.8174 132.79 53.0274C132.03 53.4674 131.29 53.9474 130.55 54.4374L130.17 54.6874C129.46 55.1674 128.76 55.6874 128.07 56.2074L127.67 56.5274C126.97 57.0774 126.28 57.6374 125.6 58.2374L125.42 58.3974C124.76 58.9774 124.12 59.5874 123.48 60.2074L123.28 60.3874L123.16 60.5174C122.67 60.9974 122.16 61.5174 121.71 61.9974L121.64 62.0774C121.19 62.5674 120.74 63.0774 120.3 63.5574L120.18 63.6974L120.02 63.8874C119.31 64.7174 118.61 65.5674 117.93 66.4374L117.87 66.5074L117.72 66.7174C117.18 67.4174 116.65 68.1374 116.14 68.8574L115.98 69.0774C115.951 69.1101 115.927 69.1472 115.91 69.1874C115.41 69.8874 114.91 70.6074 114.47 71.3274L114.33 71.5374C114.261 71.6405 114.197 71.7473 114.14 71.8574C113.76 72.4507 113.39 73.0507 113.03 73.6574C112.979 73.7542 112.923 73.8477 112.86 73.9374L112.8 74.0474C112.39 74.7474 112 75.4574 111.62 76.1674L111.53 76.3374L111.35 76.6874C111.05 77.254 110.76 77.824 110.48 78.3974L110.3 78.7574C110.271 78.8293 110.237 78.8994 110.2 78.9674C109.86 79.6974 109.52 80.4174 109.2 81.1574V81.2174L109.11 81.4574C108.82 82.1174 108.55 82.7774 108.29 83.4574L108.16 83.7874C108.16 83.8674 108.1 83.9674 108.06 84.0574C107.76 84.8374 107.48 85.6274 107.21 86.4174L107.16 86.5574C106.89 87.3774 106.65 88.1974 106.41 89.0074C106.386 89.1124 106.356 89.2159 106.32 89.3174C106.324 89.374 106.324 89.4308 106.32 89.4874C106.06 90.4274 105.83 91.3774 105.62 92.3274L105.56 92.5774C105.56 92.7074 105.51 92.8274 105.49 92.9474C105.41 93.3174 105.34 93.6974 105.28 94.0674C105.22 94.4374 105.18 94.5774 105.14 94.8374C105.1 95.0974 105.02 95.5974 104.96 95.9874C104.96 96.1674 104.91 96.3474 104.88 96.5274C104.885 96.5739 104.885 96.6208 104.88 96.6674C104.78 97.4774 104.7 98.2974 104.64 99.0974V99.6174C104.64 100.447 104.56 101.277 104.56 102.087C104.56 108.257 106.08 113.167 108.67 116.597C109.805 118.106 111.225 119.377 112.85 120.337L147.68 140.567C142.58 137.567 139.41 131.297 139.39 122.327C139.39 121.517 139.39 120.687 139.47 119.857V119.347C139.53 118.537 139.61 117.717 139.71 116.907L139.8 116.227C139.86 115.837 139.91 115.457 139.98 115.077C140.05 114.697 140.07 114.567 140.11 114.307C140.15 114.047 140.25 113.557 140.33 113.187C140.33 112.977 140.42 112.777 140.46 112.567C140.67 111.627 140.9 110.677 141.16 109.727C141.16 109.567 141.25 109.407 141.29 109.247C141.53 108.427 141.77 107.607 142.04 106.797L142.1 106.617C142.36 105.817 142.65 105.037 142.95 104.247C143.02 104.047 143.1 103.847 143.18 103.647C143.44 102.987 143.71 102.317 143.99 101.647C144.04 101.547 144.08 101.447 144.12 101.347C144.44 100.607 144.78 99.8874 145.12 99.1574L145.4 98.5874C145.68 98.0207 145.97 97.4507 146.27 96.8774L146.54 96.3574C146.92 95.6474 147.31 94.9374 147.72 94.2474L147.96 93.8474C148.31 93.2374 148.68 92.6374 149.06 92.0374L149.39 91.5174C149.85 90.7974 150.33 90.0774 150.83 89.3674L151.05 89.0574C151.57 88.3274 152.1 87.6074 152.64 86.9074L152.85 86.6274C153.53 85.7574 154.23 84.9074 154.94 84.0774L155.22 83.7474C155.66 83.2474 156.11 82.7474 156.56 82.2774L156.63 82.1874C157.11 81.6874 157.63 81.1874 158.08 80.7074L158.4 80.3974C159.04 79.7774 159.69 79.1674 160.34 78.5874L160.52 78.4274C161.187 77.834 161.877 77.264 162.59 76.7174L162.99 76.3974C163.68 75.8674 164.38 75.3974 165.09 74.8774L165.46 74.6274C166.2 74.1374 166.95 73.6274 167.7 73.2274L168.78 72.6274C168.92 71.9474 169.09 71.2574 169.25 70.5674C169.41 69.8774 169.59 69.1374 169.78 68.4174C169.97 67.6974 170.11 67.2174 170.29 66.6174C170.47 66.0174 170.62 65.5174 170.8 64.9674C170.98 64.4174 171.25 63.6274 171.49 62.9674C171.65 62.5174 171.8 62.0674 171.97 61.6274C172.28 60.8074 172.61 59.9974 172.97 59.1874C173.09 58.9074 173.19 58.6174 173.31 58.3474C173.78 57.2574 174.31 56.1874 174.79 55.1174L175.19 54.3374C175.58 53.5374 175.99 52.7374 176.42 51.9474C176.63 51.5674 176.84 51.1874 177.06 50.8074C177.433 50.1407 177.813 49.474 178.2 48.8074C178.45 48.3874 178.7 47.9674 178.96 47.5574C179.34 46.9474 179.72 46.3474 180.12 45.7574C180.52 45.1674 180.71 44.8574 181.01 44.4174C181.31 43.9774 181.67 43.3874 182.08 42.8874C182.49 42.3874 182.81 41.8874 183.19 41.3774C183.57 40.8674 183.9 40.4674 184.26 40.0174C184.77 39.3874 185.26 38.7674 185.8 38.1474C186.34 37.5274 186.71 37.0774 187.18 36.5574C187.38 36.3274 187.58 36.1074 187.79 35.8874C188.53 35.074 189.29 34.284 190.07 33.5174C190.57 33.0274 191.07 32.5174 191.6 32.0874C192.13 31.6574 192.36 31.3574 192.76 31.0174C193.16 30.6774 193.86 30.0974 194.41 29.6374C194.79 29.3274 195.16 29.0074 195.54 28.7074C196.15 28.2374 196.78 27.7974 197.41 27.3474L198.41 26.6274C199.41 25.9774 200.41 25.3574 201.35 24.7874C202.07 24.3674 202.79 23.9874 203.51 23.6274L204.12 23.3274C204.68 23.0574 205.23 22.8074 205.78 22.5774" fill="#EAEAF4"/>
<path d="M201.34 24.7473C217.09 15.6573 230.34 20.4173 234.14 35.0273C234.861 34.5057 235.609 34.0217 236.38 33.5773C246.31 27.8473 254.56 31.3773 256.23 41.3173C267.67 34.6973 276.67 39.8873 276.67 52.6173C276.67 64.4373 269 78.6173 259.03 85.7673C258.21 86.3473 257.43 86.8673 256.63 87.3273C255.885 87.7586 255.117 88.1492 254.33 88.4973L167.79 138.617C152.08 147.687 139.31 140.417 139.26 122.357C139.21 104.297 151.89 82.3573 167.6 73.2673C167.97 73.0473 168.32 72.8673 168.68 72.6673C172.4 53.7973 185.58 33.8273 201.3 24.7473" fill="#D3D3DD"/>
<path d="M310.9 97.8073C309.329 100.612 307.422 103.215 305.22 105.557C304.6 106.267 299.87 104.467 300.86 103.957C301.85 103.447 304.95 99.1273 306.5 96.2473C307.801 92.806 308.907 89.2937 309.81 85.7273C310.81 82.2073 311.62 77.0373 312.33 74.5973C312.514 73.695 312.954 72.8648 313.598 72.2067C314.242 71.5485 315.062 71.0904 315.96 70.8873C317.66 70.4973 318.76 70.9573 318.45 73.0173C317.91 76.6373 315.08 90.6873 310.9 97.7873" fill="#FFCEA9"/>
<path d="M313.61 152.887C312.15 154.087 309.98 152.997 309.88 153.107C308.154 154.702 306.345 156.204 304.46 157.607C303.55 158.327 302.12 159.297 302.38 160.677C302.84 163.147 306.8 162.387 308.29 161.627C309.78 160.867 311 159.627 312.42 158.747C313.42 158.117 314.42 157.797 314.57 156.517C314.67 155.757 313.88 152.857 313.57 152.887" fill="#38226D"/>
<path d="M314.55 155.957C314.36 157.177 313.38 157.517 312.38 158.137C310.95 159.027 309.68 160.317 308.19 161.067C306.7 161.817 303.37 162.457 302.4 160.697C302.93 163.077 306.81 162.327 308.29 161.577C309.77 160.827 311 159.577 312.42 158.697C313.42 158.067 314.42 157.747 314.57 156.467C314.594 156.298 314.594 156.126 314.57 155.957" fill="#7D2BE6"/>
<path d="M298.74 144.267C297.27 145.467 294.74 144.157 294.59 144.267C293.069 145.82 291.456 147.279 289.76 148.637C288.84 149.357 287.42 150.317 287.67 151.697C288.14 154.177 292.09 153.417 293.59 152.697C295.09 151.977 296.3 150.697 297.71 149.807C298.71 149.187 299.71 148.857 299.87 147.587C299.96 146.817 299 144.277 298.74 144.307" fill="#38226D"/>
<path d="M299.83 147.207C299.63 148.427 298.65 148.767 297.65 149.387C296.22 150.277 294.95 151.567 293.46 152.317C291.97 153.067 288.64 153.707 287.67 151.947C288.2 154.327 292.09 153.577 293.56 152.837C295.03 152.097 296.27 150.837 297.69 149.947C298.69 149.317 299.69 148.997 299.84 147.727C299.859 147.554 299.859 147.38 299.84 147.207" fill="#7D2BE6"/>
<path d="M333.23 105.817C334.86 115.977 330.34 119.767 324.48 121.927C320.27 123.477 314.23 125.867 314.23 125.867C314.23 125.867 314.32 128.097 314.36 133.097C314.41 137.507 313.82 153.587 313.82 153.587C313.126 153.945 312.356 154.132 311.575 154.132C310.794 154.132 310.024 153.945 309.33 153.587C309.33 153.587 306.97 141.267 306.47 135.717C305.79 128.177 304.63 123.247 305.02 121.627C305.35 120.197 313.59 116.147 316.21 113.977L298.95 119.757C299.293 121.631 299.46 123.533 299.45 125.437C299.29 131.437 298.96 144.357 298.96 144.357C298.96 144.357 296.59 146.067 294.57 144.357C294.57 144.357 290.23 118.737 290.76 115.357C291.26 112.137 306.47 105.567 309.14 103.297C309.608 102.917 310.151 102.64 310.733 102.483C311.315 102.326 311.924 102.293 312.52 102.387L333.23 105.817Z" fill="#7D2BE6"/>
<path d="M291.85 110.057L303.44 103.357C303.542 103.299 303.658 103.268 303.775 103.268C303.893 103.268 304.008 103.299 304.11 103.357L324.45 115.107L312.52 121.987L291.85 110.057Z" fill="#F4F4F4"/>
<path d="M313.06 119.527L313.95 120.037C314.02 120.037 314.01 120.157 313.95 120.197L313.1 120.687C313.057 120.709 313.009 120.721 312.96 120.721C312.911 120.721 312.863 120.709 312.82 120.687L311.94 120.177C311.87 120.177 311.88 120.067 311.94 120.017L312.78 119.527C312.823 119.505 312.871 119.494 312.92 119.494C312.969 119.494 313.017 119.505 313.06 119.527Z" fill="#3A2C6D"/>
<path d="M311.81 118.807L312.7 119.317C312.77 119.317 312.76 119.427 312.7 119.477L311.85 119.967C311.807 119.989 311.759 120.001 311.71 120.001C311.661 120.001 311.613 119.989 311.57 119.967L310.69 119.457C310.62 119.457 310.62 119.347 310.69 119.297L311.53 118.807C311.573 118.785 311.621 118.774 311.67 118.774C311.719 118.774 311.767 118.785 311.81 118.807Z" fill="#3A2C6D"/>
<path d="M310.55 118.077L311.43 118.587C311.5 118.587 311.49 118.697 311.43 118.747L310.59 119.237C310.547 119.259 310.499 119.271 310.45 119.271C310.401 119.271 310.353 119.259 310.31 119.237L309.42 118.727C309.35 118.727 309.36 118.607 309.42 118.567L310.27 118.077C310.313 118.055 310.361 118.044 310.41 118.044C310.459 118.044 310.507 118.055 310.55 118.077Z" fill="#3A2C6D"/>
<path d="M309.31 117.357L310.19 117.867C310.27 117.867 310.26 117.987 310.19 118.037L309.35 118.517C309.307 118.542 309.259 118.555 309.21 118.555C309.161 118.555 309.112 118.542 309.07 118.517L308.18 118.007C308.11 118.007 308.12 117.897 308.18 117.847L309.02 117.367C309.063 117.345 309.111 117.334 309.16 117.334C309.209 117.334 309.257 117.345 309.3 117.367" fill="#3A2C6D"/>
<path d="M308.06 116.637L308.94 117.147C309.01 117.147 309.01 117.267 308.94 117.307L308.1 117.797C308.057 117.819 308.009 117.831 307.96 117.831C307.911 117.831 307.863 117.819 307.82 117.797L306.93 117.287C306.86 117.287 306.87 117.177 306.93 117.127L307.78 116.637C307.823 116.615 307.871 116.604 307.92 116.604C307.969 116.604 308.017 116.615 308.06 116.637Z" fill="#3A2C6D"/>
<path d="M306.81 115.887L307.69 116.397C307.76 116.397 307.75 116.507 307.69 116.557L306.85 117.047C306.807 117.069 306.759 117.081 306.71 117.081C306.661 117.081 306.613 117.069 306.57 117.047L305.68 116.537C305.61 116.537 305.62 116.427 305.68 116.377L306.53 115.887C306.573 115.865 306.621 115.854 306.67 115.854C306.719 115.854 306.767 115.865 306.81 115.887Z" fill="#3A2C6D"/>
<path d="M305.56 115.197L306.44 115.707C306.51 115.707 306.5 115.817 306.44 115.867L305.6 116.357C305.554 116.377 305.505 116.387 305.455 116.387C305.405 116.387 305.356 116.377 305.31 116.357L304.43 115.847C304.36 115.847 304.37 115.727 304.43 115.687L305.28 115.197C305.322 115.173 305.371 115.16 305.42 115.16C305.469 115.16 305.517 115.173 305.56 115.197Z" fill="#3A2C6D"/>
<path d="M304.31 114.467L305.19 114.977C305.26 114.977 305.25 115.097 305.19 115.147L304.35 115.627C304.306 115.652 304.256 115.665 304.205 115.665C304.154 115.665 304.104 115.652 304.06 115.627L303.18 115.117C303.11 115.117 303.12 115.007 303.18 114.957L304.02 114.477C304.065 114.455 304.115 114.444 304.165 114.444C304.215 114.444 304.265 114.455 304.31 114.477" fill="#3A2C6D"/>
<path d="M303.05 113.747L303.94 114.257C304.01 114.257 304 114.377 303.94 114.417L303.09 114.907C303.047 114.929 302.999 114.941 302.95 114.941C302.901 114.941 302.853 114.929 302.81 114.907L301.93 114.397C301.86 114.397 301.87 114.287 301.93 114.237L302.77 113.747C302.813 113.725 302.861 113.714 302.91 113.714C302.959 113.714 303.007 113.725 303.05 113.747Z" fill="#3A2C6D"/>
<path d="M301.8 113.027L302.69 113.537C302.76 113.537 302.75 113.647 302.69 113.697L301.84 114.187C301.797 114.209 301.749 114.221 301.7 114.221C301.651 114.221 301.603 114.209 301.56 114.187L300.68 113.677C300.61 113.677 300.61 113.567 300.68 113.517L301.52 113.027C301.563 113.005 301.611 112.994 301.66 112.994C301.709 112.994 301.757 113.005 301.8 113.027Z" fill="#3A2C6D"/>
<path d="M300.55 112.307L301.44 112.817C301.51 112.817 301.5 112.927 301.44 112.977L300.6 113.467C300.556 113.487 300.508 113.497 300.46 113.497C300.412 113.497 300.364 113.487 300.32 113.467L299.44 112.957C299.36 112.957 299.37 112.837 299.44 112.797L300.28 112.307C300.323 112.283 300.371 112.27 300.42 112.27C300.469 112.27 300.518 112.283 300.56 112.307" fill="#3A2C6D"/>
<path d="M299.3 111.577L300.18 112.087C300.26 112.087 300.25 112.207 300.18 112.257L299.34 112.737C299.297 112.759 299.249 112.771 299.2 112.771C299.151 112.771 299.103 112.759 299.06 112.737L298.17 112.227C298.1 112.227 298.11 112.107 298.17 112.057L299.01 111.577C299.053 111.555 299.101 111.544 299.15 111.544C299.199 111.544 299.247 111.555 299.29 111.577" fill="#3A2C6D"/>
<path d="M298.05 110.887L298.93 111.397C299 111.397 299 111.517 298.93 111.557L298.09 112.047C298.047 112.069 297.999 112.081 297.95 112.081C297.901 112.081 297.853 112.069 297.81 112.047L296.92 111.537C296.85 111.537 296.86 111.427 296.92 111.377L297.77 110.887C297.813 110.865 297.861 110.854 297.91 110.854C297.959 110.854 298.007 110.865 298.05 110.887Z" fill="#3A2C6D"/>
<path d="M296.2 109.787L297.68 110.647C297.75 110.647 297.75 110.757 297.68 110.807L296.84 111.297C296.797 111.319 296.749 111.331 296.7 111.331C296.651 111.331 296.603 111.319 296.56 111.297L295.07 110.437C295 110.437 295.01 110.327 295.07 110.277L295.91 109.787C295.955 109.765 296.005 109.754 296.055 109.754C296.105 109.754 296.155 109.765 296.2 109.787Z" fill="#3A2C6D"/>
<path d="M312.42 117.757L313.3 118.267C313.38 118.267 313.37 118.377 313.3 118.427L312.46 118.917C312.417 118.939 312.369 118.951 312.32 118.951C312.271 118.951 312.223 118.939 312.18 118.917L311.29 118.407C311.22 118.407 311.23 118.297 311.29 118.247L312.13 117.757C312.173 117.735 312.221 117.724 312.27 117.724C312.319 117.724 312.367 117.735 312.41 117.757" fill="#3A2C6D"/>
<path d="M311.17 117.027L312.05 117.537C312.12 117.537 312.11 117.657 312.05 117.707L311.21 118.187C311.167 118.209 311.119 118.221 311.07 118.221C311.021 118.221 310.973 118.209 310.93 118.187L310.04 117.677C309.97 117.677 309.98 117.557 310.04 117.507L310.89 117.027C310.933 117.005 310.981 116.994 311.03 116.994C311.079 116.994 311.127 117.005 311.17 117.027Z" fill="#3A2C6D"/>
<path d="M309.91 116.307L310.8 116.817C310.87 116.817 310.86 116.937 310.8 116.977L309.95 117.467C309.907 117.489 309.859 117.501 309.81 117.501C309.761 117.501 309.713 117.489 309.67 117.467L308.79 116.957C308.72 116.957 308.73 116.847 308.79 116.797L309.63 116.307C309.673 116.285 309.721 116.274 309.77 116.274C309.819 116.274 309.867 116.285 309.91 116.307Z" fill="#3A2C6D"/>
<path d="M308.67 115.587L309.55 116.097C309.63 116.097 309.62 116.207 309.55 116.257L308.71 116.747C308.667 116.769 308.619 116.781 308.57 116.781C308.521 116.781 308.473 116.769 308.43 116.747L307.55 116.237C307.47 116.237 307.48 116.117 307.55 116.077L308.39 115.587C308.433 115.565 308.481 115.554 308.53 115.554C308.579 115.554 308.627 115.565 308.67 115.587Z" fill="#3A2C6D"/>
<path d="M307.42 114.887L308.3 115.397C308.37 115.397 308.36 115.517 308.3 115.557L307.46 116.047C307.417 116.069 307.369 116.081 307.32 116.081C307.271 116.081 307.223 116.069 307.18 116.047L306.29 115.537C306.22 115.537 306.23 115.427 306.29 115.377L307.14 114.887C307.183 114.865 307.231 114.854 307.28 114.854C307.329 114.854 307.377 114.865 307.42 114.887Z" fill="#3A2C6D"/>
<path d="M306.16 114.147L307.05 114.657C307.12 114.657 307.11 114.767 307.05 114.817L306.2 115.307C306.156 115.327 306.108 115.338 306.06 115.338C306.012 115.338 305.964 115.327 305.92 115.307L305.04 114.797C304.97 114.797 304.98 114.677 305.04 114.637L305.88 114.147C305.923 114.123 305.971 114.11 306.02 114.11C306.069 114.11 306.117 114.123 306.16 114.147Z" fill="#3A2C6D"/>
<path d="M304.91 113.417L305.79 113.927C305.87 113.927 305.86 114.047 305.79 114.097L304.95 114.577C304.907 114.602 304.859 114.615 304.81 114.615C304.761 114.615 304.713 114.602 304.67 114.577L303.79 114.067C303.71 114.067 303.72 113.957 303.79 113.907L304.63 113.417C304.674 113.397 304.722 113.387 304.77 113.387C304.818 113.387 304.866 113.397 304.91 113.417Z" fill="#3A2C6D"/>
<path d="M303.67 112.697L304.55 113.207C304.62 113.207 304.61 113.317 304.55 113.367L303.67 113.887C303.627 113.909 303.579 113.921 303.53 113.921C303.481 113.921 303.433 113.909 303.39 113.887L302.5 113.377C302.43 113.377 302.44 113.267 302.5 113.217L303.35 112.727C303.393 112.705 303.441 112.694 303.49 112.694C303.539 112.694 303.587 112.705 303.63 112.727" fill="#3A2C6D"/>
<path d="M302.4 111.977L303.29 112.487C303.36 112.487 303.35 112.597 303.29 112.647L302.44 113.137C302.396 113.157 302.348 113.168 302.3 113.168C302.252 113.168 302.204 113.157 302.16 113.137L301.28 112.627C301.21 112.627 301.22 112.507 301.28 112.457L302.12 111.977C302.163 111.953 302.211 111.94 302.26 111.94C302.309 111.94 302.357 111.953 302.4 111.977Z" fill="#3A2C6D"/>
<path d="M301.15 111.247L302.03 111.757C302.11 111.757 302.1 111.877 302.03 111.917L301.19 112.407C301.147 112.429 301.099 112.441 301.05 112.441C301.001 112.441 300.953 112.429 300.91 112.407L300.02 111.897C299.95 111.897 299.96 111.787 300.02 111.737L300.86 111.247C300.903 111.225 300.951 111.214 301 111.214C301.049 111.214 301.097 111.225 301.14 111.247" fill="#3A2C6D"/>
<path d="M299.9 110.527L300.78 111.037C300.85 111.037 300.84 111.147 300.78 111.197L299.94 111.687C299.897 111.709 299.849 111.721 299.8 111.721C299.751 111.721 299.703 111.709 299.66 111.687L298.77 111.177C298.7 111.177 298.71 111.057 298.77 111.017L299.62 110.527C299.663 110.505 299.711 110.494 299.76 110.494C299.809 110.494 299.857 110.505 299.9 110.527Z" fill="#3A2C6D"/>
<path d="M298.67 109.797L299.56 110.307C299.63 110.307 299.62 110.427 299.56 110.477L298.71 110.957C298.667 110.979 298.619 110.991 298.57 110.991C298.521 110.991 298.473 110.979 298.43 110.957L297.55 110.447C297.48 110.447 297.49 110.327 297.55 110.277L298.39 109.797C298.433 109.775 298.481 109.764 298.53 109.764C298.579 109.764 298.627 109.775 298.67 109.797Z" fill="#3A2C6D"/>
<path d="M313.67 118.477L315.16 119.337C315.23 119.337 315.22 119.457 315.16 119.497L314.32 119.987C314.277 120.009 314.229 120.021 314.18 120.021C314.131 120.021 314.083 120.009 314.04 119.987L312.55 119.127C312.48 119.127 312.49 119.017 312.55 118.967L313.39 118.477C313.434 118.458 313.482 118.447 313.53 118.447C313.578 118.447 313.626 118.458 313.67 118.477Z" fill="#3A2C6D"/>
<path d="M296.26 109.747L297.14 110.257C297.181 110.277 297.225 110.287 297.27 110.287C297.315 110.287 297.359 110.277 297.4 110.257L298.29 109.737C298.37 109.737 298.37 109.627 298.29 109.587H298.22C298.207 109.58 298.197 109.57 298.19 109.558C298.183 109.546 298.179 109.532 298.179 109.517C298.179 109.503 298.183 109.489 298.19 109.477C298.197 109.464 298.207 109.454 298.22 109.447L299.17 108.897C299.185 108.892 299.198 108.881 299.208 108.868C299.217 108.855 299.222 108.839 299.222 108.822C299.222 108.806 299.217 108.79 299.208 108.777C299.198 108.763 299.185 108.753 299.17 108.747L298.61 108.427C298.568 108.408 298.522 108.397 298.475 108.397C298.428 108.397 298.382 108.408 298.34 108.427L297.46 108.937L297.28 109.037L297.15 109.117L297.02 109.197L296.26 109.627C296.18 109.627 296.18 109.737 296.26 109.787" fill="#3A2C6D"/>
<path d="M317.91 116.727L318.79 117.237C318.87 117.237 318.86 117.347 318.79 117.397L317.95 117.887C317.906 117.907 317.858 117.918 317.81 117.918C317.762 117.918 317.714 117.907 317.67 117.887L316.78 117.377C316.71 117.377 316.72 117.257 316.78 117.217L317.62 116.727C317.663 116.703 317.711 116.69 317.76 116.69C317.809 116.69 317.857 116.703 317.9 116.727" fill="#3A2C6D"/>
<path d="M316.67 116.007L317.56 116.517C317.63 116.517 317.62 116.627 317.56 116.677L316.71 117.167C316.666 117.187 316.618 117.198 316.57 117.198C316.522 117.198 316.474 117.187 316.43 117.167L315.55 116.657C315.48 116.657 315.48 116.537 315.55 116.497L316.39 116.007C316.433 115.983 316.481 115.97 316.53 115.97C316.579 115.97 316.627 115.983 316.67 116.007Z" fill="#3A2C6D"/>
<path d="M315.41 115.287L316.3 115.797C316.37 115.797 316.36 115.907 316.3 115.957L315.46 116.447C315.414 116.467 315.365 116.477 315.315 116.477C315.265 116.477 315.216 116.467 315.17 116.447L314.29 115.937C314.22 115.937 314.23 115.817 314.29 115.777L315.13 115.287C315.173 115.263 315.221 115.25 315.27 115.25C315.319 115.25 315.367 115.263 315.41 115.287Z" fill="#3A2C6D"/>
<path d="M304.79 109.147L305.67 109.657C305.75 109.657 305.74 109.777 305.67 109.817L304.83 110.307C304.787 110.329 304.739 110.341 304.69 110.341C304.641 110.341 304.593 110.329 304.55 110.307L303.66 109.797C303.59 109.797 303.6 109.687 303.66 109.637L304.51 109.147C304.553 109.125 304.601 109.114 304.65 109.114C304.699 109.114 304.747 109.125 304.79 109.147Z" fill="#3A2C6D"/>
<path d="M303.54 108.427L304.43 108.937C304.5 108.937 304.49 109.057 304.43 109.097L303.58 109.587C303.537 109.609 303.489 109.621 303.44 109.621C303.391 109.621 303.343 109.609 303.3 109.587L302.42 109.077C302.34 109.077 302.35 108.967 302.42 108.917L303.26 108.427C303.303 108.405 303.351 108.394 303.4 108.394C303.449 108.394 303.497 108.405 303.54 108.427Z" fill="#3A2C6D"/>
<path d="M302.29 107.707L303.18 108.217C303.25 108.217 303.24 108.337 303.18 108.377L302.33 108.867C302.287 108.889 302.239 108.901 302.19 108.901C302.141 108.901 302.093 108.889 302.05 108.867L301.17 108.357C301.1 108.357 301.11 108.247 301.17 108.197L302.01 107.707C302.053 107.686 302.101 107.674 302.15 107.674C302.199 107.674 302.247 107.686 302.29 107.707Z" fill="#3A2C6D"/>
<path d="M301.05 106.987L301.93 107.497C302 107.497 301.99 107.617 301.93 107.657L301.09 108.147C301.045 108.169 300.995 108.181 300.945 108.181C300.895 108.181 300.845 108.169 300.8 108.147L299.92 107.637C299.85 107.637 299.86 107.527 299.92 107.477L300.77 106.987C300.813 106.965 300.861 106.954 300.91 106.954C300.959 106.954 301.007 106.965 301.05 106.987Z" fill="#3A2C6D"/>
<path d="M313.85 114.377L315.05 115.077C315.12 115.077 315.11 115.187 315.05 115.237L314.21 115.727C314.166 115.747 314.118 115.757 314.07 115.757C314.022 115.757 313.974 115.747 313.93 115.727L312.72 115.027C312.65 115.027 312.66 114.917 312.72 114.867L313.56 114.377C313.605 114.355 313.655 114.344 313.705 114.344C313.755 114.344 313.805 114.355 313.85 114.377Z" fill="#3A2C6D"/>
<path d="M306.04 109.887L307.24 110.587C307.31 110.587 307.31 110.697 307.24 110.747L306.4 111.237C306.357 111.259 306.309 111.271 306.26 111.271C306.211 111.271 306.163 111.259 306.12 111.237L304.91 110.537C304.84 110.537 304.85 110.427 304.91 110.377L305.76 109.887C305.804 109.867 305.852 109.857 305.9 109.857C305.948 109.857 305.996 109.867 306.04 109.887Z" fill="#3A2C6D"/>
<path d="M307.61 110.777L313.48 114.167C313.55 114.167 313.54 114.277 313.48 114.327L312.64 114.817C312.597 114.839 312.549 114.851 312.5 114.851C312.451 114.851 312.403 114.839 312.36 114.817L306.48 111.427C306.41 111.427 306.42 111.307 306.48 111.267L307.32 110.777C307.365 110.755 307.415 110.744 307.465 110.744C307.515 110.744 307.565 110.755 307.61 110.777Z" fill="#3A2C6D"/>
<path d="M313.29 116.887L314.18 117.397C314.25 117.397 314.24 117.517 314.18 117.557L313.33 118.047C313.287 118.072 313.239 118.085 313.19 118.085C313.141 118.085 313.093 118.072 313.05 118.047L312.17 117.537C312.1 117.537 312.1 117.427 312.17 117.377L313.01 116.887C313.054 116.867 313.102 116.857 313.15 116.857C313.198 116.857 313.246 116.867 313.29 116.887Z" fill="#3A2C6D"/>
<path d="M312.04 116.137L312.93 116.647C313 116.647 312.99 116.767 312.93 116.807L312.08 117.297C312.037 117.319 311.989 117.331 311.94 117.331C311.891 117.331 311.843 117.319 311.8 117.297L310.92 116.787C310.85 116.787 310.85 116.677 310.92 116.627L311.76 116.137C311.803 116.115 311.851 116.104 311.9 116.104C311.949 116.104 311.997 116.115 312.04 116.137Z" fill="#3A2C6D"/>
<path d="M310.79 115.417L311.68 115.927C311.75 115.927 311.74 116.037 311.68 116.087L310.83 116.577C310.787 116.599 310.739 116.611 310.69 116.611C310.641 116.611 310.593 116.599 310.55 116.577L309.67 116.067C309.6 116.067 309.6 115.957 309.67 115.907L310.51 115.417C310.553 115.395 310.601 115.384 310.65 115.384C310.699 115.384 310.747 115.395 310.79 115.417Z" fill="#3A2C6D"/>
<path d="M309.54 114.697L310.43 115.207C310.5 115.207 310.49 115.317 310.43 115.367L309.58 115.857C309.537 115.879 309.489 115.891 309.44 115.891C309.391 115.891 309.343 115.879 309.3 115.857L308.42 115.347C308.35 115.347 308.35 115.227 308.42 115.187L309.26 114.697C309.303 114.676 309.351 114.664 309.4 114.664C309.449 114.664 309.497 114.676 309.54 114.697Z" fill="#3A2C6D"/>
<path d="M308.29 113.977L309.18 114.487C309.25 114.487 309.24 114.597 309.18 114.647L308.33 115.137C308.286 115.157 308.238 115.168 308.19 115.168C308.142 115.168 308.094 115.157 308.05 115.137L307.17 114.627C307.1 114.627 307.11 114.507 307.17 114.457L308.01 113.977C308.052 113.953 308.101 113.94 308.15 113.94C308.199 113.94 308.247 113.953 308.29 113.977Z" fill="#3A2C6D"/>
<path d="M307.04 113.247L307.93 113.757C308 113.757 307.99 113.877 307.93 113.927L307.08 114.407C307.037 114.429 306.989 114.441 306.94 114.441C306.891 114.441 306.843 114.429 306.8 114.407L305.92 113.897C305.85 113.897 305.86 113.777 305.92 113.727L306.76 113.247C306.803 113.225 306.851 113.214 306.9 113.214C306.949 113.214 306.997 113.225 307.04 113.247Z" fill="#3A2C6D"/>
<path d="M305.79 112.527L306.68 113.037C306.75 113.037 306.74 113.157 306.68 113.197L305.83 113.687C305.787 113.712 305.739 113.725 305.69 113.725C305.641 113.725 305.592 113.712 305.55 113.687L304.67 113.177C304.6 113.177 304.61 113.067 304.67 113.017L305.51 112.527C305.554 112.508 305.602 112.497 305.65 112.497C305.698 112.497 305.746 112.508 305.79 112.527Z" fill="#3A2C6D"/>
<path d="M304.54 111.807L305.43 112.317C305.5 112.317 305.49 112.437 305.43 112.477L304.58 112.967C304.537 112.989 304.489 113.001 304.44 113.001C304.391 113.001 304.343 112.989 304.3 112.967L303.42 112.457C303.35 112.457 303.36 112.347 303.42 112.297L304.26 111.807C304.303 111.785 304.351 111.774 304.4 111.774C304.449 111.774 304.497 111.785 304.54 111.807Z" fill="#3A2C6D"/>
<path d="M303.29 111.087L304.18 111.597C304.25 111.597 304.24 111.707 304.18 111.757L303.33 112.247C303.287 112.269 303.239 112.281 303.19 112.281C303.141 112.281 303.093 112.269 303.05 112.247L302.17 111.737C302.1 111.737 302.11 111.627 302.17 111.577L303.01 111.087C303.053 111.065 303.101 111.054 303.15 111.054C303.199 111.054 303.247 111.065 303.29 111.087Z" fill="#3A2C6D"/>
<path d="M302.05 110.367L302.93 110.877C303 110.877 302.99 110.987 302.93 111.037L302.08 111.527C302.037 111.549 301.989 111.561 301.94 111.561C301.891 111.561 301.843 111.549 301.8 111.527L300.92 111.017C300.85 111.017 300.86 110.897 300.92 110.857L301.76 110.367C301.805 110.345 301.855 110.334 301.905 110.334C301.955 110.334 302.005 110.345 302.05 110.367Z" fill="#3A2C6D"/>
<path d="M300.8 109.647L301.68 110.157C301.75 110.157 301.74 110.267 301.68 110.317L300.83 110.807C300.786 110.827 300.738 110.838 300.69 110.838C300.642 110.838 300.594 110.827 300.55 110.807L299.67 110.297C299.6 110.297 299.61 110.177 299.67 110.127L300.51 109.647C300.554 109.623 300.604 109.61 300.655 109.61C300.706 109.61 300.756 109.623 300.8 109.647Z" fill="#3A2C6D"/>
<path d="M299.55 108.887L300.43 109.397C300.5 109.397 300.49 109.517 300.43 109.567L299.59 110.047C299.545 110.069 299.495 110.081 299.445 110.081C299.395 110.081 299.345 110.069 299.3 110.047L298.42 109.537C298.35 109.537 298.36 109.417 298.42 109.367L299.26 108.887C299.305 108.865 299.355 108.854 299.405 108.854C299.455 108.854 299.505 108.865 299.55 108.887Z" fill="#3A2C6D"/>
<path d="M314.54 117.577L316.37 118.637C316.44 118.637 316.43 118.747 316.37 118.797L315.53 119.287C315.487 119.309 315.439 119.321 315.39 119.321C315.341 119.321 315.293 119.309 315.25 119.287L313.42 118.227C313.34 118.227 313.35 118.117 313.42 118.067L314.26 117.587C314.303 117.565 314.351 117.554 314.4 117.554C314.449 117.554 314.497 117.565 314.54 117.587" fill="#3A2C6D"/>
<path d="M315.13 116.517L316.01 117.027C316.08 117.027 316.07 117.137 316.01 117.187L315.17 117.677C315.127 117.699 315.079 117.711 315.03 117.711C314.981 117.711 314.933 117.699 314.89 117.677L314 117.167C313.93 117.167 313.94 117.057 314 117.007L314.85 116.517C314.893 116.495 314.941 116.484 314.99 116.484C315.039 116.484 315.087 116.495 315.13 116.517Z" fill="#3A2C6D"/>
<path d="M313.88 115.797L314.76 116.307C314.83 116.307 314.82 116.417 314.76 116.467L313.92 116.957C313.877 116.979 313.829 116.991 313.78 116.991C313.731 116.991 313.683 116.979 313.64 116.957L312.75 116.447C312.68 116.447 312.69 116.327 312.75 116.287L313.6 115.797C313.643 115.775 313.691 115.764 313.74 115.764C313.789 115.764 313.837 115.775 313.88 115.797Z" fill="#3A2C6D"/>
<path d="M312.67 115.077L313.55 115.587C313.62 115.587 313.61 115.697 313.55 115.747L312.71 116.237C312.665 116.259 312.615 116.271 312.565 116.271C312.515 116.271 312.465 116.259 312.42 116.237L311.54 115.727C311.47 115.727 311.48 115.607 311.54 115.567L312.39 115.077C312.433 115.055 312.481 115.044 312.53 115.044C312.579 115.044 312.627 115.055 312.67 115.077Z" fill="#3A2C6D"/>
<path d="M311.38 114.357L312.26 114.867C312.33 114.867 312.32 114.977 312.26 115.027L311.42 115.517C311.376 115.537 311.328 115.548 311.28 115.548C311.232 115.548 311.184 115.537 311.14 115.517L310.25 115.007C310.18 115.007 310.19 114.887 310.25 114.837L311.1 114.357C311.143 114.333 311.191 114.32 311.24 114.32C311.289 114.32 311.337 114.333 311.38 114.357Z" fill="#3A2C6D"/>
<path d="M310.13 113.627L311.01 114.137C311.08 114.137 311.07 114.257 311.01 114.307L310.17 114.787C310.127 114.809 310.079 114.821 310.03 114.821C309.981 114.821 309.933 114.809 309.89 114.787L309 114.277C308.93 114.277 308.94 114.157 309 114.107L309.85 113.627C309.893 113.605 309.941 113.594 309.99 113.594C310.039 113.594 310.087 113.605 310.13 113.627Z" fill="#3A2C6D"/>
<path d="M308.88 112.887L309.76 113.397C309.83 113.397 309.82 113.517 309.76 113.567L308.92 114.047C308.877 114.072 308.829 114.085 308.78 114.085C308.731 114.085 308.683 114.072 308.64 114.047L307.75 113.537C307.68 113.537 307.69 113.427 307.75 113.377L308.6 112.887C308.644 112.867 308.692 112.857 308.74 112.857C308.788 112.857 308.836 112.867 308.88 112.887Z" fill="#3A2C6D"/>
<path d="M307.67 112.187L308.55 112.697C308.62 112.697 308.61 112.817 308.55 112.857L307.71 113.347C307.667 113.369 307.619 113.381 307.57 113.381C307.521 113.381 307.473 113.369 307.43 113.347L306.54 112.837C306.47 112.837 306.48 112.727 306.54 112.677L307.39 112.187C307.433 112.166 307.481 112.154 307.53 112.154C307.579 112.154 307.627 112.166 307.67 112.187Z" fill="#3A2C6D"/>
<path d="M306.38 111.467L307.26 111.977C307.34 111.977 307.32 112.087 307.26 112.137L306.42 112.627C306.377 112.649 306.329 112.661 306.28 112.661C306.231 112.661 306.183 112.649 306.14 112.627L305.25 112.118C305.18 112.118 305.19 112.007 305.25 111.957L306.1 111.467C306.143 111.446 306.191 111.434 306.24 111.434C306.289 111.434 306.337 111.446 306.38 111.467Z" fill="#3A2C6D"/>
<path d="M305.13 110.747L306.01 111.257C306.09 111.257 306.08 111.367 306.01 111.417L305.17 111.907C305.127 111.929 305.079 111.941 305.03 111.941C304.981 111.941 304.933 111.929 304.89 111.907L304 111.397C303.93 111.397 303.94 111.277 304 111.237L304.85 110.747C304.893 110.725 304.941 110.714 304.99 110.714C305.039 110.714 305.087 110.725 305.13 110.747Z" fill="#3A2C6D"/>
<path d="M303.88 110.027L304.76 110.537C304.84 110.537 304.83 110.647 304.76 110.697L303.92 111.187C303.876 111.207 303.828 111.217 303.78 111.217C303.732 111.217 303.684 111.207 303.64 111.187L302.75 110.677C302.68 110.677 302.69 110.557 302.75 110.517L303.6 110.027C303.643 110.003 303.691 109.99 303.74 109.99C303.789 109.99 303.837 110.003 303.88 110.027Z" fill="#3A2C6D"/>
<path d="M302.67 109.307L303.55 109.817C303.63 109.817 303.62 109.927 303.55 109.977L302.71 110.467C302.666 110.487 302.618 110.497 302.57 110.497C302.522 110.497 302.474 110.487 302.43 110.467L301.54 109.957C301.47 109.957 301.48 109.837 301.54 109.787L302.39 109.307C302.433 109.283 302.481 109.27 302.53 109.27C302.579 109.27 302.627 109.283 302.67 109.307Z" fill="#3A2C6D"/>
<path d="M299.83 107.687L302.26 109.087C302.34 109.087 302.33 109.207 302.26 109.257L301.42 109.737C301.377 109.762 301.329 109.775 301.28 109.775C301.231 109.775 301.183 109.762 301.14 109.737L298.71 108.337C298.64 108.337 298.65 108.227 298.71 108.177L299.55 107.687C299.593 107.666 299.641 107.654 299.69 107.654C299.739 107.654 299.787 107.666 299.83 107.687Z" fill="#3A2C6D"/>
<path d="M316.38 117.237L317.58 117.937C317.65 117.937 317.64 118.047 317.58 118.097L316.74 118.587C316.696 118.607 316.648 118.617 316.6 118.617C316.552 118.617 316.504 118.607 316.46 118.587L315.25 117.887C315.18 117.887 315.19 117.777 315.25 117.727L316.1 117.237C316.143 117.215 316.191 117.204 316.24 117.204C316.289 117.204 316.337 117.215 316.38 117.237Z" fill="#3A2C6D"/>
<path d="M294.94 110.517L312.67 120.757C312.74 120.757 312.73 120.877 312.67 120.927L312.25 121.167C312.205 121.19 312.155 121.201 312.105 121.201C312.055 121.201 312.005 121.19 311.96 121.167L294.22 110.887C294.14 110.887 294.15 110.777 294.22 110.727L294.64 110.487C294.682 110.463 294.731 110.45 294.78 110.45C294.829 110.45 294.877 110.463 294.92 110.487" fill="#3A2C6D"/>
<path d="M315.7 110.967L315.58 111.037L312.52 112.807L307.07 109.657L306.95 109.597L310.14 107.757L315.7 110.967Z" fill="#BFBFBF"/>
<path d="M315.58 111.037L312.52 112.807L307.07 109.657L310.14 107.887L315.58 111.037Z" fill="#E5E5E5"/>
<path d="M324.45 115.107V115.377C324.456 115.579 324.408 115.779 324.309 115.955C324.21 116.131 324.065 116.277 323.89 116.377L313.08 122.617C312.912 122.716 312.72 122.768 312.525 122.768C312.33 122.768 312.138 122.716 311.97 122.617L292.41 111.327C292.234 111.227 292.09 111.081 291.991 110.905C291.892 110.729 291.843 110.529 291.85 110.327V110.057L312.52 121.987L324.45 115.107Z" fill="#E5E5E5"/>
<path d="M312.21 122.157C312.025 122.227 311.827 122.256 311.63 122.24C311.433 122.224 311.242 122.166 311.07 122.067L291.6 110.827C291.43 110.73 291.283 110.596 291.171 110.435C291.059 110.274 290.983 110.091 290.95 109.897L288.82 97.1873C288.815 97.1141 288.815 97.0406 288.82 96.9673C288.82 96.6147 288.961 96.2766 289.21 96.0273L309.45 107.717C309.574 107.79 309.681 107.888 309.764 108.005C309.847 108.122 309.904 108.256 309.93 108.397L312.21 122.157Z" fill="#F4F4F4"/>
<path d="M312.52 121.987L312.39 122.067L312.21 122.157L309.91 108.397C309.883 108.256 309.827 108.122 309.744 108.005C309.661 107.888 309.554 107.79 309.43 107.717L289.19 96.0274C289.269 95.9467 289.36 95.8791 289.46 95.8274L309.74 107.527C309.865 107.601 309.973 107.7 310.056 107.82C310.139 107.939 310.195 108.074 310.22 108.217L312.52 121.987Z" fill="#E5E5E5"/>
<path d="M327.22 67.5874C327.22 67.5874 326.97 72.4274 327.08 72.8574C327.19 73.2874 329.3 74.6974 329.92 75.2074C330.54 75.7174 326.57 79.6174 324.65 80.5074C322.73 81.3974 316.65 79.0574 316.51 76.0674C316.37 73.0774 317.56 70.5574 318.51 70.4174C319.46 70.2774 327.24 67.5874 327.24 67.5874" fill="#FFCEA9"/>
<path d="M327.76 73.6873C327.76 73.6873 324.25 78.9173 319.36 79.4073C317.81 77.8873 317.67 72.4673 319.81 70.7373C319.81 70.7373 317.81 69.1573 316.5 69.4673C315.063 70.3409 313.996 71.7105 313.5 73.3173C312.252 76.9155 311.665 80.7101 311.77 84.5173C311.85 89.6473 311.77 102.627 311.77 102.627C312.06 104.16 312.67 105.614 313.561 106.895C314.452 108.175 315.603 109.253 316.94 110.057C320.471 112.042 324.624 112.614 328.56 111.657C331.04 111.077 331.96 109.657 332.81 107.887C332.59 104.297 331.17 96.8873 331.81 92.3673C332.45 87.8473 333.36 84.4673 333.61 80.8073C333.86 77.1473 333.13 77.2273 331.3 75.9173C330.198 75.0925 329.038 74.3473 327.83 73.6873" fill="#F4F4F4"/>
<path d="M322.13 115.377C323.013 114.795 323.932 114.267 324.88 113.797C325.769 113.521 326.579 113.034 327.24 112.377C328.1 111.527 329.51 108.377 330.51 105.237C331.509 101.73 331.902 98.0773 331.67 94.4375C331.24 90.0675 329.67 83.9675 329.27 81.4375C328.87 78.9075 329.68 77.9275 330.85 76.9975C332.22 75.9175 334.11 76.3975 335.12 79.9075C336.438 84.8001 337.206 89.8245 337.41 94.8875C337.439 98.6249 336.851 102.341 335.67 105.887C334.629 108.932 333.219 111.837 331.47 114.537C330.99 115.347 330.84 116.067 330.1 117.727C329.391 119.389 328.29 120.855 326.89 121.997C325.66 122.877 325.08 122.997 324.79 122.837C324.5 122.677 324.5 122.227 325.02 121.757C325.891 121.079 326.633 120.249 327.21 119.307C327.21 119.307 326.13 120.387 325.43 120.967C324.81 121.496 324.12 121.937 323.38 122.277C322.66 122.597 321.66 121.987 322.17 121.507C322.68 121.027 323.17 120.777 324.23 119.897C324.775 119.427 325.262 118.894 325.68 118.307C324.962 118.863 324.199 119.358 323.4 119.787C322.775 120.171 322.053 120.366 321.32 120.347C320.94 120.347 320.48 119.807 321.19 119.287C322.171 118.778 323.087 118.154 323.92 117.427C324.7 116.647 325.15 115.987 324.92 115.977C324.69 115.967 324.27 116.447 323.35 116.737C322.43 117.027 321.44 116.737 321.35 116.267C321.26 115.797 321.26 115.847 322.12 115.427" fill="#FFCEA9"/>
<path d="M316.28 60.3773C316.85 56.6173 319.56 53.7773 323.43 53.9873C325.402 54.1083 327.245 55.0054 328.557 56.4822C329.869 57.9589 330.542 59.8952 330.43 61.8673C330.367 63.0069 330.041 64.1164 329.477 65.1089C328.913 66.1013 328.127 66.9496 327.18 67.5872C327.046 68.1558 326.844 68.7063 326.58 69.2272C325.21 70.8272 321.07 71.8173 319.88 71.6473C319.173 71.5843 318.502 71.3104 317.952 70.861C317.403 70.4117 317.002 69.8076 316.8 69.1273C315.51 66.1773 315.92 62.2273 316.24 60.3773" fill="#FFCEA9"/>
<path d="M327.22 67.5874L326.87 64.3074C326.87 64.3074 329.54 57.3774 323.22 58.7074C319.05 59.5874 318 59.9674 316.73 57.1674C315.46 54.3674 319.94 51.8474 325.26 52.5474C327.092 52.74 328.785 53.6136 330.004 54.9952C331.222 56.3768 331.878 58.1656 331.84 60.0074C331.7 62.0674 331.15 66.2374 327.22 67.5874Z" fill="#3A2C6D"/>
<path d="M338.05 86.3873C338.05 86.3873 334.6 89.8273 330.51 88.8373C329.93 88.4373 328.51 80.4173 328.51 80.4173C328.51 80.4173 328.51 75.9673 331.92 76.0873C335.33 76.2073 338.03 86.3873 338.03 86.3873" fill="#EDEDED"/>
<path d="M311.99 79.7373C311.023 79.6982 310.109 79.286 309.44 78.5873C309.57 76.7973 311.87 69.9773 316.5 69.4673C315.24 70.3492 314.241 71.5549 313.61 72.9573C312.895 75.172 312.354 77.4388 311.99 79.7373Z" fill="#EDEDED"/>
<g opacity="0.4">
<g opacity="0.4">
<path opacity="0.4" d="M293.67 495.557C296.14 500.947 306.77 501.357 317.42 496.477C328.07 491.597 334.67 483.267 332.21 477.887C329.75 472.507 319.11 472.087 308.46 476.967C297.81 481.847 291.18 490.177 293.66 495.567" fill="#D6D8E5"/>
</g>
</g>
<path d="M329.88 399.037C329.88 399.037 329.22 408.967 327.88 410.397C326.54 411.827 322.17 412.807 322.17 412.807L318.77 418.387C318.77 418.387 321.87 400.637 322.55 400.207C323.23 399.777 329.84 399.037 329.84 399.037" fill="#FFCEA9"/>
<path d="M323.35 388.007C324.177 387.628 325.115 387.563 325.986 387.827C326.857 388.09 327.602 388.663 328.08 389.437C329.33 391.507 330.62 398.607 330.74 399.817C330.74 399.817 328.99 402.237 326.36 401.817L323.35 388.007Z" fill="#EDEDED"/>
<path d="M313.3 487.127C311.452 487.645 309.473 487.408 307.8 486.467C306.48 486.467 299.3 483.467 298.32 486.017C297.46 488.277 300.57 490.367 302.24 490.777C305.86 491.657 308.55 493.457 310.01 493.777C311.09 494.007 312.5 494.157 313.36 493.307C314.36 492.307 314.31 488.487 313.3 487.137" fill="#38226D"/>
<path d="M310.01 493.137C308.55 492.837 305.86 491.027 302.24 490.137C300.84 489.797 298.44 488.277 298.24 486.457C297.92 488.537 300.73 490.387 302.24 490.757C305.86 491.637 308.55 493.447 310.01 493.757C311.09 493.987 312.5 494.137 313.36 493.287C313.585 493.038 313.749 492.74 313.84 492.417C313.301 492.827 312.674 493.104 312.009 493.227C311.344 493.351 310.659 493.316 310.01 493.127" fill="#7D2BE6"/>
<path d="M324.48 483.647C322.633 484.157 320.66 483.916 318.99 482.977C317.66 482.977 310.48 479.977 309.5 482.527C308.65 484.787 311.76 486.877 313.42 487.287C317.05 488.167 319.73 489.977 321.19 490.287C322.28 490.517 323.68 490.667 324.55 489.817C325.55 488.817 325.5 485.007 324.48 483.657" fill="#38226D"/>
<path d="M321.19 489.657C319.73 489.347 317.05 487.537 313.42 486.657C312.03 486.317 309.63 484.797 309.42 482.977C309.09 485.067 311.9 486.907 313.42 487.287C317.05 488.167 319.73 489.977 321.19 490.287C322.28 490.517 323.68 490.667 324.55 489.817C324.775 489.57 324.937 489.271 325.02 488.947C324.482 489.358 323.855 489.636 323.19 489.761C322.525 489.886 321.84 489.854 321.19 489.667" fill="#7D2BE6"/>
<path d="M325.28 463.447C324.967 460.779 324.411 458.145 323.62 455.577C323.62 455.577 324.11 448.787 324.36 442.347C324.64 435.047 327.17 428.617 325.17 422.787L302.93 427.787C302.93 427.787 304 456.967 304.3 460.497C304.463 463.242 304.797 465.974 305.3 468.677C306.3 474.327 307.45 486.977 307.45 486.977C309.84 488.367 313.33 487.227 313.33 487.227C313.33 487.227 313.33 471.387 313.19 467.317C313 462.317 312.85 462.717 312.85 462.717L313.6 450.327L314.08 444.167C314.08 444.167 314.71 448.687 315.08 452.727C315.44 456.247 316.29 459.437 317.24 465.997C318.06 471.687 318.91 483.277 318.91 483.277C321.3 484.667 324.5 483.707 324.5 483.707C324.5 483.707 325.88 468.427 325.24 463.497" fill="#7D2BE6"/>
<path d="M322.16 388.137C320.44 388.217 319.16 388.657 318.95 388.137C318.764 387.25 318.634 386.351 318.56 385.447C318.75 384.957 318.92 384.447 318.92 384.447C321.08 383.117 321.76 380.787 322.04 378.077C322.53 373.437 320.04 369.377 315.39 368.897C311.03 368.447 307.82 371.507 306.96 375.717C306.5 377.787 305.59 381.717 306.83 385.127C307.52 387.037 308.41 388.557 309.31 388.857C310.173 388.827 311.035 388.751 311.89 388.627C311.89 388.627 312.12 389.917 312.28 390.747C312.44 391.577 312.38 392.007 310.73 393.017C309.08 394.027 313.22 396.117 315.92 395.917C318.62 395.717 321.66 394.077 322.5 392.327C323.43 390.387 323.35 388.087 322.17 388.147" fill="#FFCEA9"/>
<path d="M319.67 388.387C320.15 389.577 318.94 391.027 315.72 392.037C312.5 393.047 312.2 391.747 312.2 391.747C310.055 392.706 307.965 393.784 305.94 394.977C304 396.327 303.14 400.247 302.88 406.847C302.58 414.497 302.56 425.847 302.81 427.847C302.81 427.847 306.43 431.457 311.05 431.077C315.67 430.697 323.47 426.597 325.36 423.437C325.3 416.727 324.52 415.637 325.61 411.777C328.09 402.937 329.4 399.317 328.19 393.437C327.19 388.597 325.8 387.997 323.89 388.037C322.477 388.097 321.069 388.23 319.67 388.437" fill="#F4F4F4"/>
<path d="M306.88 433.687L309.23 407.057L304.23 404.427L302.29 406.047L302.89 429.967V430.627V431.467C302.89 431.467 302.78 433.467 306.58 435.887C306.58 435.887 306.64 435.257 306.69 434.667L306.78 433.667L306.88 433.687Z" fill="#FFCEA9"/>
<path d="M307.47 393.327C304.91 393.277 303.27 394.638 302.65 398.588C302.03 402.538 301.65 405.767 301.65 405.767C302.826 407.082 304.462 407.895 306.22 408.037C309.32 408.377 310.22 406.808 310.22 406.808C310.22 406.808 310.54 402.697 310.72 399.917C310.9 397.137 310.64 393.387 307.47 393.327Z" fill="#EDEDED"/>
<path d="M311.79 367.757C318.05 366.867 322.07 370.887 322.54 375.247C322.98 379.417 320.41 383.747 318.54 385.467C316.719 385.937 314.788 385.705 313.13 384.817C313.025 383.681 312.985 382.539 313.01 381.397C313.01 381.397 316.06 374.977 307.09 375.087C307.09 375.087 303.09 368.997 311.77 367.757" fill="#3A2C6D"/>
<path d="M281.45 276.487C281.68 278.557 284.15 287.487 283.62 290.487C283.09 293.487 274.67 298.647 274.67 298.647L273.51 293.417L278.17 288.887L276.91 280.227L281.45 276.487Z" fill="#FFCEA9"/>
<path d="M274.94 267.707C275.758 267.328 276.688 267.262 277.551 267.524C278.414 267.786 279.151 268.357 279.62 269.127C280.86 271.177 282.15 278.217 282.26 279.417C282.26 279.417 280.53 281.817 277.92 281.417L274.94 267.707Z" fill="#EDEDED"/>
<path d="M265.32 367.057C263.487 367.565 261.528 367.327 259.87 366.397C258.56 366.397 251.44 363.397 250.47 365.947C249.62 368.187 252.71 370.267 254.35 370.667C257.95 371.537 260.61 373.327 262.06 373.667C263.14 373.897 264.53 374.047 265.39 373.197C266.39 372.197 266.33 368.427 265.32 367.087" fill="#38226D"/>
<path d="M262.06 373.017C260.61 372.707 257.95 370.917 254.35 370.017C252.97 369.677 250.59 368.167 250.35 366.367C250.03 368.437 252.82 370.267 254.35 370.637C257.95 371.507 260.61 373.297 262.06 373.637C263.14 373.867 264.53 374.017 265.39 373.167C265.61 372.92 265.77 372.626 265.86 372.307C265.325 372.712 264.703 372.987 264.044 373.11C263.384 373.233 262.705 373.202 262.06 373.017Z" fill="#7D2BE6"/>
<path d="M276.88 361.887C275.047 362.396 273.088 362.158 271.43 361.227C270.11 361.227 262.99 358.227 262.02 360.777C261.17 363.027 264.26 365.097 265.91 365.497C269.51 366.367 272.17 368.167 273.61 368.497C274.69 368.727 276.08 368.877 276.94 368.027C277.94 367.027 277.88 363.257 276.88 361.917" fill="#38226D"/>
<path d="M273.61 367.827C272.17 367.527 269.51 365.727 265.91 364.827C264.53 364.497 262.15 362.977 261.91 361.177C261.59 363.247 264.37 365.077 265.91 365.447C269.51 366.317 272.17 368.117 273.61 368.447C274.69 368.677 276.08 368.827 276.94 367.977C277.165 367.734 277.327 367.438 277.41 367.117C276.876 367.524 276.254 367.8 275.594 367.923C274.934 368.047 274.255 368.014 273.61 367.827Z" fill="#7D2BE6"/>
<path d="M277.02 342.517C276.712 339.869 276.16 337.254 275.37 334.707C275.37 334.707 275.86 327.977 276.11 321.597C276.39 314.347 278.9 307.977 276.92 302.197L254.57 307.197C254.57 307.197 255.92 336.077 256.22 339.577C256.382 342.296 256.716 345.001 257.22 347.677C258.22 353.287 259.9 366.627 259.9 366.627C261.599 367.441 263.523 367.656 265.36 367.237C265.36 367.237 265.19 350.377 265.04 346.337C264.85 341.397 264.7 341.777 264.7 341.777L265.44 329.487L265.93 323.377C265.93 323.377 266.55 327.867 266.93 331.867C267.28 335.367 268.12 338.527 269.06 345.027C269.88 350.667 271.21 362.027 271.21 362.027C273.57 363.397 276.78 362.257 276.78 362.257C276.78 362.257 277.64 347.457 277 342.567" fill="#FF7B7B"/>
<path d="M273.75 267.827C272.05 267.917 270.75 268.357 270.57 267.827C270.384 266.95 270.254 266.061 270.18 265.167C270.38 264.677 270.55 264.167 270.55 264.167C272.67 262.887 273.36 260.537 273.67 257.887C274.15 253.287 271.67 249.267 267.07 248.787C262.74 248.337 259.56 251.377 258.72 255.547C258.26 257.607 257.35 261.497 258.58 264.887C259.26 266.777 260.15 268.277 261.04 268.577C261.897 268.548 262.752 268.471 263.6 268.347C263.6 268.347 263.83 269.627 263.99 270.447C264.15 271.267 264.09 271.697 262.45 272.707C260.81 273.717 264.92 275.777 267.6 275.577C270.28 275.377 273.29 273.757 274.12 272.027C275.04 270.087 274.96 267.817 273.79 267.867" fill="#FFCEA9"/>
<path d="M271.29 268.087C271.76 269.257 270.56 270.697 267.37 271.707C264.18 272.717 263.88 271.417 263.88 271.417C261.751 272.365 259.678 273.434 257.67 274.617C255.75 275.957 254.9 279.837 254.67 286.387C254.37 293.977 254.34 305.227 254.6 307.167C254.6 307.167 258.18 310.737 262.77 310.367C267.36 309.997 275.08 305.927 276.95 302.787C276.9 296.137 276.13 295.057 277.2 291.227C279.67 282.457 280.96 278.867 279.77 273.037C278.77 268.237 277.39 267.637 275.5 267.687C274.101 267.747 272.705 267.88 271.32 268.087" fill="#F4F4F4"/>
<path d="M247.42 292.657C251.19 293.657 252.07 291.237 252.57 289.267C253.77 284.507 254.41 280.207 255.31 277.507C256.36 274.317 257.46 273.817 259.01 273.187C260.83 272.467 262.39 273.997 261.79 278.057C261.045 282.759 259.89 287.386 258.34 291.887C257.87 293.377 256.82 296.007 255.24 297.277C253.3 298.847 250.37 298.787 245.95 297.677C244.06 297.207 241.95 296.087 238.41 294.417C237.46 293.967 236.71 293.677 234.87 292.817C233.021 291.987 231.402 290.721 230.15 289.127C229.15 287.737 229.06 287.077 229.25 286.757C229.44 286.437 229.94 286.447 230.45 287.037C231.194 288.031 232.112 288.882 233.16 289.547C233.16 289.547 231.97 288.317 231.33 287.547C230.752 286.838 230.271 286.054 229.9 285.217C229.56 284.407 230.26 283.297 230.8 283.877C231.34 284.457 231.58 285.047 232.56 286.217C233.075 286.838 233.659 287.398 234.3 287.887C233.699 287.068 233.163 286.202 232.7 285.297C232.28 284.591 232.075 283.778 232.11 282.957C232.11 282.537 232.74 282.027 233.3 282.837C233.846 283.941 234.517 284.977 235.3 285.927C236.16 286.817 236.9 287.327 236.92 287.077C236.94 286.827 236.4 286.347 236.09 285.307C235.78 284.267 236.09 283.167 236.67 283.047C237.25 282.927 237.13 282.957 237.59 283.927C238.222 284.929 238.793 285.967 239.3 287.037C239.591 288.041 240.123 288.957 240.85 289.707C241.78 290.707 243.85 291.777 247.4 292.707" fill="#FFCEA9"/>
<path d="M260.4 272.537C257.89 272.167 256.11 273.307 255 277.117C253.89 280.927 253.11 284.047 253.11 284.047C254.11 285.483 255.619 286.485 257.33 286.847C260.33 287.577 261.42 286.137 261.42 286.137C261.42 286.137 262.25 282.137 262.77 279.427C263.29 276.717 263.52 272.997 260.4 272.537Z" fill="#EDEDED"/>
<path d="M258.83 254.887C258.83 254.887 254.83 248.887 263.47 247.617C269.68 246.727 273.67 250.717 274.13 255.047C274.57 259.177 272.02 263.477 270.18 265.177C268.372 265.64 266.456 265.408 264.81 264.527C264.712 263.404 264.675 262.275 264.7 261.147C264.7 261.147 267.7 254.777 258.83 254.887Z" fill="#3A2C6D"/>
<path d="M180.24 391.727L180.21 400.707L90.3999 452.907L90.4299 443.927L180.24 391.727Z" fill="#D3D3DD"/>
<path d="M90.43 443.927L90.4 452.907L0 400.717L0.03 391.737L90.43 443.927Z" fill="#E0DEE9"/>
<path d="M180.24 391.727L90.43 443.927L0.0300293 391.737L89.84 339.537L180.24 391.727Z" fill="#EAEAF4"/>
<path d="M166.23 255.617L165.85 390.347L90.26 434.267L90.64 299.547L166.23 255.617Z" fill="#D3D3DD"/>
<path d="M90.6399 299.547L90.2599 434.267L14.1699 390.347L14.5499 255.617L90.6399 299.547Z" fill="#E0DEE9"/>
<path d="M166.23 255.617L90.64 299.548L14.55 255.617L90.14 211.688L166.23 255.617Z" fill="#EAEAF4"/>
<path d="M34.16 314.527L34.12 328.497L21.97 321.477L22.01 307.517L34.16 314.527Z" fill="black"/>
<path d="M34.22 295.097L34.18 309.057L22.03 302.047L22.07 288.087L34.22 295.097Z" fill="black"/>
<path d="M34.2701 275.667L34.2301 289.637L22.0901 282.617L22.1201 268.647L34.2701 275.667Z" fill="black"/>
<path d="M83.2601 362.337L83.2201 376.307L39.6201 351.137L39.6601 337.167L83.2601 362.337Z" fill="black"/>
<path d="M83.3099 342.907L83.2699 356.877L39.6799 331.707L39.7199 317.737L83.3099 342.907Z" fill="black"/>
<path d="M83.37 323.477L83.33 337.437L39.73 312.267L39.77 298.307L83.37 323.477Z" fill="black"/>
<path d="M83.42 304.037L83.38 318.007L39.79 292.837L39.83 278.877L83.42 304.037Z" fill="black"/>
<path d="M34.0501 353.387L34.0101 367.357L21.8601 360.337L21.9001 346.377L34.0501 353.387Z" fill="black"/>
<path d="M34.1099 333.957L34.0699 347.927L21.9199 340.917L21.9599 326.947L34.1099 333.957Z" fill="black"/>
<path d="M83.2001 381.767L83.1601 395.737L39.5701 370.567L39.6101 356.597L83.2001 381.767Z" fill="black"/>
<path d="M109.83 316.607L109.87 330.577L97.7099 337.597L97.6699 323.627L109.83 316.607Z" fill="black"/>
<path d="M109.77 297.177L109.81 311.147L97.6601 318.167L97.6201 304.197L109.77 297.177Z" fill="black"/>
<path d="M159.14 346.537L159.18 360.497L115.58 385.667L115.54 371.707L159.14 346.537Z" fill="black"/>
<path d="M159.08 327.097L159.12 341.067L115.53 366.237L115.49 352.267L159.08 327.097Z" fill="black"/>
<path d="M159.03 307.677L159.07 321.637L115.47 346.807L115.43 332.837L159.03 307.677Z" fill="black"/>
<path d="M158.97 288.237L159.01 302.207L115.42 327.377L115.38 313.407L158.97 288.237Z" fill="black"/>
<path d="M158.92 268.807L158.96 282.767L115.36 307.947L115.32 293.977L158.92 268.807Z" fill="black"/>
<path d="M109.99 374.907L110.03 388.867L97.8801 395.887L97.8401 381.927L109.99 374.907Z" fill="black"/>
<path d="M109.94 355.467L109.98 369.437L97.82 376.457L97.78 362.487L109.94 355.467Z" fill="black"/>
<path d="M109.88 336.047L109.92 350.007L97.77 357.027L97.73 343.067L109.88 336.047Z" fill="black"/>
<path d="M165.88 379.477L165.85 390.337L90.26 434.267L90.28 423.147L165.88 379.477Z" fill="#7D2BE6"/>
<path d="M90.2799 423.147L90.2499 434.267L14.1699 390.347L14.1999 379.217L90.2799 423.147Z" fill="#7D2BE6"/>
<path d="M89.79 257.397C90.0763 257.417 90.3637 257.417 90.65 257.397L94.97 259.897C91.8799 260.837 88.5801 260.837 85.49 259.897L89.79 257.397Z" fill="black"/>
<path d="M71 241.567C82 236.237 98.18 236.237 109.26 241.567L105.36 243.827C96.45 239.727 83.78 239.727 74.93 243.827L71 241.567Z" fill="black"/>
<path d="M77.6699 245.417C85.6642 242.178 94.6056 242.178 102.6 245.417L98.6699 247.707C93.1846 245.68 87.1553 245.68 81.6699 247.707L77.6699 245.417Z" fill="black"/>
<path d="M85.4299 249.887C88.5234 248.947 91.8264 248.947 94.9199 249.887L90.6699 252.387H89.7899L85.4299 249.887Z" fill="black"/>
<path d="M94.53 255.147C94.55 254.981 94.55 254.814 94.53 254.647L98.83 252.147C99.2111 252.496 99.5154 252.92 99.7236 253.393C99.9318 253.865 100.039 254.376 100.039 254.892C100.039 255.409 99.9318 255.92 99.7236 256.392C99.5154 256.865 99.2111 257.289 98.83 257.637L94.53 255.147Z" fill="black"/>
<path d="M102.67 259.887C106.17 256.887 106.16 252.967 102.67 250.007L106.6 247.727C112.23 251.967 112.26 257.927 106.68 262.167L102.67 259.887Z" fill="black"/>
<path d="M77.7501 249.957C74.2501 252.957 74.2801 256.877 77.8201 259.837L73.8801 262.117C68.2501 257.877 68.2201 251.917 73.8001 247.677L77.7501 249.957Z" fill="black"/>
<path d="M109.37 263.717C116.37 258.577 116.37 251.227 109.27 246.087L113.17 243.817C122.39 250.217 122.45 259.577 113.29 265.977L109.37 263.717Z" fill="black"/>
<path d="M75.0499 265.967C83.9499 270.057 96.6399 270.057 105.48 265.967L109.4 268.237C98.3999 273.557 82.2299 273.557 71.1599 268.237L75.0499 265.967Z" fill="black"/>
<path d="M71.0401 246.087C64.0401 251.217 64.0401 258.567 71.1401 263.717L67.2501 265.977C58.0101 259.577 57.9601 250.217 67.1201 243.817L71.0401 246.087Z" fill="black"/>
<path d="M81.72 262.087C87.2054 264.115 93.2347 264.115 98.72 262.087L102.72 264.377C94.7243 267.627 85.7758 267.627 77.78 264.377L81.72 262.087Z" fill="black"/>
<path d="M85.87 254.647C85.8451 254.813 85.8451 254.982 85.87 255.147L81.57 257.647C81.186 257.3 80.879 256.875 80.669 256.402C80.4589 255.928 80.3503 255.416 80.3503 254.897C80.3503 254.379 80.4589 253.867 80.669 253.393C80.879 252.92 81.186 252.495 81.57 252.147L85.87 254.647Z" fill="black"/>
</svg>
